<svg width="32" height="32" viewBox="0 0 32 32" fill="none" xmlns="http://www.w3.org/2000/svg">
<path fill-rule="evenodd" clip-rule="evenodd" d="M27.6666 9.33333C27.6666 9.59855 27.5612 9.8529 27.3737 10.0404C27.1862 10.228 26.9318 10.3333 26.6666 10.3333H5.33325C5.06804 10.3333 4.81368 10.228 4.62615 10.0404C4.43861 9.8529 4.33325 9.59855 4.33325 9.33333C4.33325 9.06812 4.43861 8.81376 4.62615 8.62623C4.81368 8.43869 5.06804 8.33333 5.33325 8.33333H26.6666C26.9318 8.33333 27.1862 8.43869 27.3737 8.62623C27.5612 8.81376 27.6666 9.06812 27.6666 9.33333ZM27.6666 16C27.6666 16.2652 27.5612 16.5196 27.3737 16.7071C27.1862 16.8946 26.9318 17 26.6666 17H5.33325C5.06804 17 4.81368 16.8946 4.62615 16.7071C4.43861 16.5196 4.33325 16.2652 4.33325 16C4.33325 15.7348 4.43861 15.4804 4.62615 15.2929C4.81368 15.1054 5.06804 15 5.33325 15H26.6666C26.9318 15 27.1862 15.1054 27.3737 15.2929C27.5612 15.4804 27.6666 15.7348 27.6666 16ZM27.6666 22.6667C27.6666 22.9319 27.5612 23.1862 27.3737 23.3738C27.1862 23.5613 26.9318 23.6667 26.6666 23.6667H5.33325C5.06804 23.6667 4.81368 23.5613 4.62615 23.3738C4.43861 23.1862 4.33325 22.9319 4.33325 22.6667C4.33325 22.4014 4.43861 22.1471 4.62615 21.9596C4.81368 21.772 5.06804 21.6667 5.33325 21.6667H26.6666C26.9318 21.6667 27.1862 21.772 27.3737 21.9596C27.5612 22.1471 27.6666 22.4014 27.6666 22.6667Z" fill="white"/>
</svg>
