<svg width="51" height="41" viewBox="0 0 51 41" fill="none" xmlns="http://www.w3.org/2000/svg">
<path d="M47.07 0.891994V9.188H42.312C38.5707 9.188 36.7 11.0587 36.7 14.8V18.704H38.774C42.0273 18.704 44.7113 19.68 46.826 21.632C49.022 23.584 50.12 26.0647 50.12 29.074C50.12 32.3273 49.022 34.9707 46.826 37.004C44.7113 39.0373 42.0273 40.054 38.774 40.054C35.4393 40.054 32.7147 39.0373 30.6 37.004C28.4853 34.8893 27.428 32.0833 27.428 28.586V14.556C27.428 5.44666 31.9827 0.891994 41.092 0.891994H47.07ZM20.23 0.891994V9.188H15.472C11.7307 9.188 9.86 11.0587 9.86 14.8V18.704H11.934C15.1873 18.704 17.8713 19.68 19.986 21.632C22.182 23.584 23.28 26.0647 23.28 29.074C23.28 32.3273 22.182 34.9707 19.986 37.004C17.8713 39.0373 15.1873 40.054 11.934 40.054C8.59933 40.054 5.87467 39.0373 3.76 37.004C1.64533 34.8893 0.588 32.0833 0.588 28.586V14.556C0.588 5.44666 5.14267 0.891994 14.252 0.891994H20.23Z" fill="#E5E5E5"/>
</svg>
