<svg width="63" height="62" viewBox="0 0 63 62" fill="none" xmlns="http://www.w3.org/2000/svg">
<rect x="0.666687" width="62" height="62" rx="9" fill="#64009B"/>
<path d="M22.3327 21.6665H39.666C40.7269 21.6665 41.7443 22.0879 42.4945 22.8381C43.2446 23.5882 43.666 24.6056 43.666 25.6665V37.6665C43.666 38.7274 43.2446 39.7448 42.4945 40.4949C41.7443 41.2451 40.7269 41.6665 39.666 41.6665H22.3327C21.2718 41.6665 20.2544 41.2451 19.5043 40.4949C18.7541 39.7448 18.3327 38.7274 18.3327 37.6665V25.6665C18.3327 24.6056 18.7541 23.5882 19.5043 22.8381C20.2544 22.0879 21.2718 21.6665 22.3327 21.6665ZM22.3327 22.9998C21.666 22.9998 21.0794 23.2265 20.626 23.6265L30.9994 30.3332L41.3727 23.6265C40.9194 23.2265 40.3327 22.9998 39.666 22.9998H22.3327ZM30.9994 31.9465L19.8394 24.7065C19.7327 24.9998 19.666 25.3332 19.666 25.6665V37.6665C19.666 38.3737 19.947 39.052 20.4471 39.5521C20.9472 40.0522 21.6255 40.3332 22.3327 40.3332H39.666C40.3733 40.3332 41.0516 40.0522 41.5517 39.5521C42.0518 39.052 42.3327 38.3737 42.3327 37.6665V25.6665C42.3327 25.3332 42.266 24.9998 42.1594 24.7065L30.9994 31.9465Z" fill="white"/>
</svg>
