<svg width="63" height="62" viewBox="0 0 63 62" fill="none" xmlns="http://www.w3.org/2000/svg">
<rect x="0.333496" width="62" height="62" rx="9" fill="#64009B"/>
<path d="M31.3339 41.236C33.8406 39.0547 35.8219 36.8364 37.2779 34.5813C38.7339 32.3262 39.4619 30.3751 39.4619 28.728C39.4619 26.2889 38.6899 24.2756 37.1459 22.688C35.6001 21.1013 33.6628 20.308 31.3339 20.308C29.005 20.308 27.0677 21.1013 25.5219 22.688C23.9761 24.2747 23.2041 26.288 23.2059 28.728C23.2059 30.3742 23.9339 32.3253 25.3899 34.5813C26.8459 36.8373 28.8272 39.0556 31.3339 41.236ZM31.3339 42.408C31.125 42.408 30.9161 42.3738 30.7072 42.3053C30.4983 42.2369 30.3063 42.1258 30.1312 41.972C29.1828 41.1 28.221 40.1289 27.2459 39.0587C26.2717 37.9893 25.3872 36.8813 24.5926 35.7347C23.7979 34.588 23.1455 33.4178 22.6352 32.224C22.125 31.0302 21.8708 29.8649 21.8726 28.728C21.8726 25.9076 22.7908 23.5813 24.6272 21.7493C26.4646 19.9164 28.7001 19 31.3339 19C33.9677 19 36.2032 19.9164 38.0406 21.7493C39.877 23.5813 40.7952 25.9076 40.7952 28.728C40.7952 29.8649 40.541 31.0262 40.0326 32.212C39.5241 33.3969 38.8761 34.5667 38.0886 35.7213C37.3019 36.8769 36.4215 37.9853 35.4472 39.0467C34.473 40.108 33.5108 41.0747 32.5606 41.9467C32.3908 42.1004 32.1979 42.216 31.9819 42.2933C31.765 42.3698 31.5486 42.408 31.3326 42.408M31.3379 30.6413C31.9308 30.6413 32.4375 30.4298 32.8579 30.0067C33.2775 29.5844 33.4872 29.0764 33.4872 28.4827C33.4872 27.8889 33.2757 27.3822 32.8526 26.9627C32.4295 26.5431 31.9215 26.3333 31.3286 26.3333C30.7357 26.3333 30.229 26.5449 29.8086 26.968C29.3881 27.3911 29.1783 27.8991 29.1792 28.492C29.1801 29.0849 29.3912 29.5916 29.8126 30.012C30.2339 30.4324 30.7423 30.6422 31.3379 30.6413Z" fill="white"/>
</svg>
