<svg xmlns="http://www.w3.org/2000/svg" id="Layer_1" data-name="Layer 1" viewBox="0 0 374.94 375.02"><defs><style>.cls-1{fill:#235a82;}.cls-2{fill:#1d7c88;}.cls-3{fill:#95397d;}.cls-4{fill:#1c3461;}</style></defs><path class="cls-1" d="M244.34,443.51c-6.61-.92-13.28-1.55-19.83-2.81-66.57-12.87-114-50.23-141.13-112.34-31-71-12.23-156.77,44.72-209.21q46.49-42.78,109.23-49.63a182.89,182.89,0,0,1,73.74,7.37c5.32,1.63,7.86,5.33,7.35,10.32a9,9,0,0,1-8.12,8.11,15.23,15.23,0,0,1-5.36-.76c-54.49-15.26-105-6.8-150.45,26.9-35.5,26.33-57.14,62-64.57,105.65-8.73,51.12,3.74,97.18,36.69,137.13,26.19,31.77,60.11,51.33,100.78,58,54.32,8.93,102.71-5,143-42.4,42.3-39.3,59.56-88.7,52.71-146.15-1.07-9-3.58-17.89-5.71-26.77-1.52-6.32.67-11.51,6-13,5.46-1.53,10.17,1.49,12,7.75a186,186,0,0,1,7.52,40.91,27.08,27.08,0,0,0,.59,3.19V266.3c-.2,1.06-.45,2.11-.6,3.18-1.25,8.68-2.05,17.44-3.79,26C424.2,369,362.44,428.43,288.32,440.62c-6.82,1.13-13.7,1.93-20.55,2.89Z" transform="translate(-68.53 -68.49)"></path><path class="cls-2" d="M256.85,386.9c-63.78-.62-118.34-46.75-129-109.71A130.54,130.54,0,0,1,238.66,126c8.28-1.15,16.78-.86,25.18-.93,4.8,0,8.42,2.3,10.05,7.05,2.19,6.37-2.68,12.32-9.73,11.71-21.41-1.85-41.45,2.83-60.3,12.76-40.2,21.17-63.56,65.62-58.51,110.93,5.7,51.17,44.4,91.22,95.57,98.89,60.45,9.06,118.06-34,126.45-94.78,1.06-7.67.86-15.54.76-23.32-.08-5.84,3-10.28,8.42-10.91a9.06,9.06,0,0,1,10.28,9.36c-.05,10.58.43,21.44-1.71,31.67C373.5,333.86,339.87,368.82,285,382.91,275.89,385.25,266.26,385.62,256.85,386.9Z" transform="translate(-68.53 -68.49)"></path><path class="cls-3" d="M343.39,199.65c-5.84,0-12.31-1.57-17.36.45-4.9,2-8.37,7.56-12.43,11.61q-24.6,24.57-49.15,49.18c-2.94,2.95-6.18,4.82-10.46,3.56a9.2,9.2,0,0,1-4.63-14.71,36.19,36.19,0,0,1,3-3.2q28.72-28.72,57.49-57.41a8.8,8.8,0,0,0,2.86-7c-.17-9.15,0-18.3-.09-27.45a12.87,12.87,0,0,1,4-9.8q26.87-26.7,53.57-53.57c3.32-3.34,7-5,11.51-3.11s5.72,5.58,5.67,10.1c-.09,7.57.12,15.14-.1,22.7-.09,3.14,1,3.9,4,3.82,7.56-.18,15.12,0,22.68-.08,4.56-.06,8.26,1.33,10,5.78s.24,8-3,11.23q-27,26.86-53.81,53.84a12.31,12.31,0,0,1-9.47,3.89c-4.76-.1-9.52,0-14.28,0Zm-12-19c7.89,0,15.31.08,22.73-.09a5.72,5.72,0,0,0,3.3-1.86q16.5-16.36,32.89-32.85c.62-.62,1.12-1.38,2.05-2.54-4.77,0-8.88,0-13,0-7-.06-10.57-3.63-10.62-10.59,0-4.19,0-8.38,0-12.78-.75.3-1,.33-1.17.48q-17.49,17.44-34.93,34.94a4.54,4.54,0,0,0-1.19,2.86C331.37,165.53,331.41,172.84,331.41,180.67Z" transform="translate(-68.53 -68.49)"></path><path class="cls-4" d="M182.23,255.43a74.39,74.39,0,0,1,70.83-74.68c1.22-.06,2.44-.11,3.66-.05a9.43,9.43,0,0,1,9.25,9.05c.17,4.81-3.23,8.77-8.33,9.5-4.81.69-9.76.76-14.46,1.89-26,6.26-44.45,31.23-42.47,57.09,2.19,28.58,22.89,50.26,50.52,52.89a55.77,55.77,0,0,0,61.32-53.31c.16-4.06.71-7.86,4.49-10.22a8.88,8.88,0,0,1,9.4-.32c3.57,1.94,5,5.15,4.95,9.12C331,274,325.58,289.83,314,303.11c-20.55,23.62-46.63,32.34-76.76,24.22-30-8.08-47.85-28.71-54.22-59.16a44,44,0,0,1-.8-6.16C182.13,259.82,182.23,257.62,182.23,255.43Z" transform="translate(-68.53 -68.49)"></path></svg>