<svg xmlns="http://www.w3.org/2000/svg" xmlns:xlink="http://www.w3.org/1999/xlink" viewBox="0 0 119.29 75.95"><defs><style>.cls-1{fill:none;}.cls-2{clip-path:url(#clip-path);}.cls-3{fill:#231f20;}.cls-4{fill:#5261ac;}.cls-5{fill:#5dc4b9;}</style><clipPath id="clip-path"><rect class="cls-1" width="119.29" height="75.95"/></clipPath></defs><title>Asset 1</title><g id="Layer_2" data-name="Layer 2"><g id="Layer_1-2" data-name="Layer 1"><g class="cls-2"><path class="cls-3" d="M88.12,63a7.06,7.06,0,0,0-1.73-.27c-1.82,0-2.55,1-2.54,2C83.88,67.13,87,66.45,87,68c0,.49-.36,1.06-1.42,1.06a4.65,4.65,0,0,1-1.49-.25l-.17,1a7,7,0,0,0,1.9.29c1.87,0,2.73-1.13,2.72-2.3,0-2.43-3.14-2-3.16-3.26,0-.48.38-.8,1.2-.8a4.82,4.82,0,0,1,1.35.2l.21-.92"/><path class="cls-3" d="M80,64.21h-.25c-.91,0-1.51.52-2,1.55V70H76.25V63a10.85,10.85,0,0,0,1.48-.22v1.65c.42-.79,1-1.74,2.12-1.74l.34,0L80,64.21"/><path class="cls-3" d="M94.12,70v-4.7c0-1.06-.38-1.37-1-1.37a2.55,2.55,0,0,0-1.85,1.26V70H89.76V60.54a8.42,8.42,0,0,0,1.48-.22V64a2.94,2.94,0,0,1,2.35-1.26,1.88,1.88,0,0,1,1.81,1.09,3.25,3.25,0,0,1,.21,1.47V70H94.12"/><path class="cls-3" d="M72.73,70V60.54a7.07,7.07,0,0,0,1.61-.32V70H72.73"/><path class="cls-3" d="M81.68,61.64a.88.88,0,1,1,.87-.87.88.88,0,0,1-.87.87"/><path class="cls-3" d="M80.93,70V63h.14a7.08,7.08,0,0,0,1.34-.21V70H80.93"/><path class="cls-3" d="M99.52,70V60.54a7.91,7.91,0,0,0,1.61-.32v8.66h2.92V70H99.52"/><path class="cls-3" d="M112.54,60.52a3.76,3.76,0,0,0-.7-.08c-.91,0-1.21.51-1.21,2v.46h1.61l-.14.88h-1.47V70h-1.5V63.82H108l.14-.88h1v-.58c0-1.92.75-2.79,2.39-2.79a6.48,6.48,0,0,1,1.21.11l-.19.84"/><path class="cls-3" d="M105.89,61.64a.88.88,0,1,1,.88-.87.87.87,0,0,1-.88.87"/><path class="cls-3" d="M105.15,70V63h.14a10.45,10.45,0,0,0,1.34-.21V70h-1.48"/><path class="cls-3" d="M114.34,66.55v.18c.06,1.63.68,2.35,2,2.35a4.3,4.3,0,0,0,1.82-.43l.3.81a5.09,5.09,0,0,1-2.55.65c-2.1,0-3.22-1.32-3.22-3.79,0-2.26,1.13-3.59,3.06-3.59s2.89,1.3,2.91,3.82Zm1.42-3c-.87,0-1.36.76-1.42,2.13H117c0-1.38-.48-2.13-1.28-2.13"/><path class="cls-3" d="M58.73,70.12a2.63,2.63,0,0,1-2.11-1.06v.86h-1V59.17h1V64a3.44,3.44,0,0,1,2.51-1.25c1.62,0,2.74,1.39,2.74,3.39,0,2.39-1.28,4-3.14,4m.17-6.39a3,3,0,0,0-2.28,1.4v2.68a2.75,2.75,0,0,0,2.13,1.36c1.19,0,2-1.18,2-2.83S60,63.73,58.9,63.73"/><path class="cls-3" d="M65.76,71.58l-.15.38a5.3,5.3,0,0,1-.56,1,1.65,1.65,0,0,1-1.46.63,2.38,2.38,0,0,1-1-.16l.23-.76a3.36,3.36,0,0,0,.66.08c.53,0,.81-.23,1.15-1l.21-.5.57-1.36-2.82-6.92H63.8L66,68.67l2.32-5.76h1.09Z"/><path class="cls-4" d="M81.46,22.74l-.2.23a1.56,1.56,0,0,0-.49,1.26v0a3.53,3.53,0,0,0,.33,1.18,1.68,1.68,0,0,0,.86.88,2.31,2.31,0,0,0,1,.21,3.49,3.49,0,0,0,.87-.12,2.65,2.65,0,0,0,1.59-1c.12-.21.24-.44.35-.67s.19-.43.28-.66a2.05,2.05,0,0,0-.35-1.86A1.7,1.7,0,0,0,84,21.38a11,11,0,0,0-1.28.21,1.72,1.72,0,0,0-1.24,1.15"/><path class="cls-4" d="M119.28,39.62v-.08c0-.36-.18-.6-.68-.69l-.12,0c-.28-.07-.59.07-1.08.48l-.05,0-.18.3a1.18,1.18,0,0,1-.49.5l-.2.15,0,0a.63.63,0,0,0-.19.41l0,.13h-.06a.76.76,0,0,0-.62.47l0,.06v.06a.71.71,0,0,1-.36.58,2.91,2.91,0,0,0-1,.75,5.13,5.13,0,0,1-1,.85c-.36.24-.74.49-1.12.72s-.69.36-1,.51a3.06,3.06,0,0,1-1,.26l-.42,0a1.77,1.77,0,0,0-.64,0,1.11,1.11,0,0,1-.85-.15.69.69,0,0,1-.37-.53,14.4,14.4,0,0,0-.24-1.77,2,2,0,0,1,.23-1.39.7.7,0,0,0,0-.77.44.44,0,0,1,0-.3c.06-.18.13-.37.2-.55l0-.06c.08-.31.15-.64.24-1a10,10,0,0,0,.18-1c0-.08,0-.14.19-.16a9.11,9.11,0,0,0,3.78-1A7.2,7.2,0,0,0,114,35.38c.44-.41.87-.83,1.26-1.26a2.18,2.18,0,0,0,.45-.68s0-.1.18-.16a.55.55,0,0,0,.4-.43,1.86,1.86,0,0,0,0-.34l0-.12s-.05-.16.17-.39a1,1,0,0,0,.38-.79v-.07a1,1,0,0,1,0-.5c.06-.22.11-.44.15-.65a3.22,3.22,0,0,0-.17-1.94,5.74,5.74,0,0,0-1-1.51l0,0a3.59,3.59,0,0,0-2.66-.95,1.3,1.3,0,0,0-.88.07,3,3,0,0,1-.59.17,6.87,6.87,0,0,0-2,.57,7.09,7.09,0,0,0-1.71,1.14,14,14,0,0,0-1.31,1.38,14.85,14.85,0,0,0-1.07,1.49c-.32.52-.62,1-.9,1.53a11.28,11.28,0,0,0-.73,1.62c-.2.52-.38,1-.55,1.54s-.3,1.05-.42,1.59a17.36,17.36,0,0,0-.41,2.08l-.25.19a6.61,6.61,0,0,1-.85.62,10.81,10.81,0,0,1-2.36,1.17,7.72,7.72,0,0,1-2.56.42h-.07a.73.73,0,0,1-.39,0,1.44,1.44,0,0,0-.87-.14,1.42,1.42,0,0,1-1.27-.81,3,3,0,0,0-.68-.73,2.81,2.81,0,0,0,.21-.59,6,6,0,0,1,1.78-2.76,8.55,8.55,0,0,0,1.19-1.54,3,3,0,0,1,1.15-1.12l.08-.07a1,1,0,0,0,.18-.23l.07-.08,0-.09a2.71,2.71,0,0,1,1-1.35,3,3,0,0,0,.77-1v0a.87.87,0,0,1,.29-.48l0,0a3.34,3.34,0,0,0,.85-.92c.17-.3.36-.6.56-.91l0,0a1.37,1.37,0,0,1,.26-.42,2,2,0,0,0,1-1.15,2.31,2.31,0,0,1,.54-.88,1.07,1.07,0,0,0,.47-.64s0-.08.17-.13l.06,0c.35-.18.35-.63.35-.8s0-.07,0-.09l.06,0a2.74,2.74,0,0,0,.84-1,8.4,8.4,0,0,1,.51-.93c.53-.86,1-1.69,1.49-2.47s.91-1.66,1.31-2.54a2.59,2.59,0,0,0,.3-.78.8.8,0,0,1,.21-.41,1.9,1.9,0,0,0,.46-.76,7.08,7.08,0,0,0,.22-.75,5.79,5.79,0,0,1,.19-.63.86.86,0,0,1,.28-.38l.16-.13v-.5a1.37,1.37,0,0,1,.05-.39c0-.13.08-.3.11-.5a5.24,5.24,0,0,0,.35-1.61,8.49,8.49,0,0,0-.1-1.64v0a2.31,2.31,0,0,0-1.94-1.94,2.7,2.7,0,0,0-1.3,0,5,5,0,0,0-1.11.48,11.38,11.38,0,0,0-1.24.77,8.07,8.07,0,0,0-1,.88,16.51,16.51,0,0,0-1.58,1.55,18.81,18.81,0,0,0-1.38,1.76q-.46.58-.93,1.11a4.58,4.58,0,0,0-.83,1.33,1.05,1.05,0,0,1-.16.19,6.82,6.82,0,0,0-1.17,1.58c-.29.54-.59,1.07-.91,1.58l-1.13,2-1.06,2a9,9,0,0,0-.71,1.52,3.39,3.39,0,0,1-.82,1.24l-.14.14,0,.2a.62.62,0,0,1-.21.58,1.64,1.64,0,0,0-.57,1.28.44.44,0,0,1-.09.27l-.31.42a1,1,0,0,0-.48.79,4.6,4.6,0,0,1-.32,1,8.4,8.4,0,0,1-.51.93l0,0c-.16.32-.32.64-.48,1A5.29,5.29,0,0,0,90,32.19a4.6,4.6,0,0,1-.49,1.27,5.62,5.62,0,0,0-.57,1.44,7.22,7.22,0,0,1-.28.86l-.26.66-.59.67c-.41.44-.79.89-1.12,1.32a12.62,12.62,0,0,1-1.1,1.25,5.63,5.63,0,0,0-.86.92,4.54,4.54,0,0,1-.74.79q-.42.36-.84.75a3,3,0,0,1-.8.54.67.67,0,0,1-.46,0,.44.44,0,0,1-.17-.29,2.06,2.06,0,0,1-.1-.37h0c0-.73.06-1.46.06-2.16V37.79a1.2,1.2,0,0,1,.1-.4v0a3.78,3.78,0,0,1,.29-.8,1.61,1.61,0,0,0,.09-1.15,1.19,1.19,0,0,0,.43-.78,1.42,1.42,0,0,1,.12-.47l0-.08a2,2,0,0,1,.15-.47c.07-.17.15-.34.22-.53a4.4,4.4,0,0,0,.69-1.53c.12-.51.25-1,.41-1.46a1.29,1.29,0,0,0-.59-1.48,4.25,4.25,0,0,0-.78-.42,5.43,5.43,0,0,0-.91-.29,2.12,2.12,0,0,0-2,.61,4.09,4.09,0,0,0-1.36,2,4.42,4.42,0,0,1-1,1.7l-.1.13v.1l0,0,0,.16a1.54,1.54,0,0,1,0,.31l-.09.11a2.62,2.62,0,0,0-.67,1.16,2.45,2.45,0,0,1-.5,1,3.21,3.21,0,0,0-.68,1.2,5.35,5.35,0,0,1-.74,1.4,11.65,11.65,0,0,0-1,1.51,10.33,10.33,0,0,1-2.41,3.09c-.35.35-.71.68-1.07,1a2.26,2.26,0,0,1-1.18.5h0a1,1,0,0,1-.67-.07.92.92,0,0,1-.49-.46c-.12-.3-.25-.62-.39-.95a1.3,1.3,0,0,1-.11-.72,5.84,5.84,0,0,0-.07-1.91,2.22,2.22,0,0,1,.2-1.45.7.7,0,0,0,.06-.53.53.53,0,0,1,0-.13v-.38a1.24,1.24,0,0,1,0-.36c.08-.4.16-.78.24-1.16s.15-.76.24-1.17.16-.94.26-1.4a2.12,2.12,0,0,1,.5-1A7.65,7.65,0,0,0,70,30.79c.26-.41.56-.85.87-1.28s.79-1.12,1.16-1.67.73-1.11,1-1.66a7.11,7.11,0,0,0,.55-.93,3,3,0,0,1,.53-.74,6,6,0,0,0,.74-1c.17-.32.36-.63.55-.93l0,0a5,5,0,0,1,.68-1,2.43,2.43,0,0,0,.59-1.3l.06,0a1,1,0,0,0,.59-.68A4.05,4.05,0,0,1,78,18.24a6.2,6.2,0,0,0,.81-1.4,8.24,8.24,0,0,1,.65-1.07,4.13,4.13,0,0,0,.63-1.32v0a.8.8,0,0,1,.18-.43l.41-.53a3.27,3.27,0,0,0,.4-.64,1.48,1.48,0,0,0,.15-.78,2.88,2.88,0,0,0,.85-1.25c.16-.46.32-.92.48-1.41a9.54,9.54,0,0,0,.28-1.21c.06-.37.13-.77.21-1.22a2.45,2.45,0,0,0-.94-2.42A3.16,3.16,0,0,0,80.8,4a2,2,0,0,0-1.44.24A10.29,10.29,0,0,1,78,5,4.94,4.94,0,0,0,76.51,6.1a6.14,6.14,0,0,0-.55.65.71.71,0,0,1-.44.25l-.11,0-.32.32,0,.08a.89.89,0,0,1-.23.36,3.5,3.5,0,0,0-.43.55,9.82,9.82,0,0,1-.77.8,3.85,3.85,0,0,0-.78,1,10.13,10.13,0,0,1-1,1.39,5.74,5.74,0,0,0-1.06,1.62v0a5.36,5.36,0,0,0-1,1.57v0a1.33,1.33,0,0,1-.11.24c-.06.09-.13.19-.19.3A15.32,15.32,0,0,0,68,17.83c-.38.84-.79,1.69-1.22,2.55-.23.51-.48,1-.73,1.56a5.93,5.93,0,0,0-.54,1.75l-.09.18a11.74,11.74,0,0,0-.59,1.58c-.13.48-.3,1-.49,1.49S64,28,63.9,28.55a9.77,9.77,0,0,1-.46,1.52,11.42,11.42,0,0,0-.52,2.15,13.43,13.43,0,0,1-.44,2,8.72,8.72,0,0,0-.28,1.91c0,.59-.06,1.21-.14,1.82A2.22,2.22,0,0,0,62.17,39a.8.8,0,0,1,0,.51,1.42,1.42,0,0,0-.08.81,3.88,3.88,0,0,0,.19.64A10.28,10.28,0,0,0,63,42.82c.26.57.56,1.14.88,1.69a3.47,3.47,0,0,0,1,1.13,2.74,2.74,0,0,0,1.47.63,11.53,11.53,0,0,1,1.28.17,2.77,2.77,0,0,0,.49,0,2.7,2.7,0,0,0,1.24-.29,4.85,4.85,0,0,1,1.22-.4.61.61,0,0,0,.61-.54A.42.42,0,0,1,71.6,45a1.18,1.18,0,0,0,.88-.52,8.13,8.13,0,0,1,1.16-1.27,5.43,5.43,0,0,0,1.19-1.58,4.9,4.9,0,0,1,.84-1.2l.07-.09c0,.22,0,.44.06.65.07.61.18,1.25.29,1.86a2.82,2.82,0,0,0,2.12,2.48,7.88,7.88,0,0,0,1.33.38,2.25,2.25,0,0,0,.44,0,2.51,2.51,0,0,0,.92-.18,1,1,0,0,0,1.21-.4l.15-.09c.44-.2.88-.42,1.31-.66a3.39,3.39,0,0,0,1.14-1.09l.28-.18a5,5,0,0,0,1-.83l1-1.12c0,.11,0,.21,0,.32-.06.59-.13,1.16-.2,1.67a6.74,6.74,0,0,0-.13,1.8,7.75,7.75,0,0,1,0,1.6v.77a4.78,4.78,0,0,0,.07.82A17.11,17.11,0,0,0,87,50.06c.13.54.26,1.12.38,1.74a6.08,6.08,0,0,0,1,2.11,2.7,2.7,0,0,0,1,.84,8.41,8.41,0,0,0,1.06.44,1.82,1.82,0,0,0,.56.09,1.72,1.72,0,0,0,.81-.21,1,1,0,0,1,.74-.11l.35.08.14-.33a.83.83,0,0,1,.36-.42,1.9,1.9,0,0,0,.69-.66c.19-.35.39-.69.6-1a3.62,3.62,0,0,0,.51-1.33,8.7,8.7,0,0,1,.42-1.69,3.12,3.12,0,0,0,0-2.07,1.05,1.05,0,0,0,.27-.89,2.38,2.38,0,0,1,0-.56V46c-.07-.53-.14-1.06-.2-1.59a7.69,7.69,0,0,0-.23-1.12l.48,0a5.36,5.36,0,0,1,.9,0,2.9,2.9,0,0,0,1.21-.1c.33-.1.67-.21,1-.34a19.62,19.62,0,0,0,3.47-1.7,12.35,12.35,0,0,0,.13,1.62,7.18,7.18,0,0,0,.89,2.36,5.08,5.08,0,0,0,2,1.79,4.18,4.18,0,0,0,.84.32,2.56,2.56,0,0,1,.65.3l.05,0a3.1,3.1,0,0,0,1.38.35,2.72,2.72,0,0,0,.49,0,4.39,4.39,0,0,1,1.45,0h.07a.81.81,0,0,0,.59-.24l.07-.06,0-.09s0,0,0,0a2.83,2.83,0,0,0,.66-.18,7.26,7.26,0,0,0,2.11-1.19c.57-.48,1.15-.95,1.74-1.42a5.53,5.53,0,0,0,.61-.58c.17-.19.34-.37.53-.56a5,5,0,0,0,1.15-1.35,2.71,2.71,0,0,1,.74-.87l.09-.08,0-.12a1.64,1.64,0,0,0,0-.23l0-.05.06-.08a.34.34,0,0,0,.08-.09l.06-.08v0a.93.93,0,0,0,.22-.33,1,1,0,0,0,.09-.54m-9.19-6.17.69-1.2a7.13,7.13,0,0,1,.44-.7,5.27,5.27,0,0,1,.49-.57l0-.05a4.4,4.4,0,0,1,.35-.39,2.29,2.29,0,0,0,.41-.57,1.69,1.69,0,0,1,.66-.79c.35-.21.7-.42,1.08-.63.12-.08.19-.09.2-.08s.06.05.13.2a2.54,2.54,0,0,1,.25,1.29,4.11,4.11,0,0,1-.32,1.32,5.12,5.12,0,0,1-.82,1.34,12.53,12.53,0,0,1-1.14,1.17,5.11,5.11,0,0,1-1.09.74q-.67.33-1.32.69l0,0a.6.6,0,0,1-.48.08l-.28,0a1.24,1.24,0,0,0-.27,0v0a3.42,3.42,0,0,1,.26-.55l.48-.83a3,3,0,0,0,.26-.46m-7.41-16a.62.62,0,0,1,.23-.58,1.69,1.69,0,0,0,.65-1.16.53.53,0,0,1,.16-.08.73.73,0,0,0,.56-.69,1,1,0,0,1,.25-.74,7.34,7.34,0,0,0,.71-.95A6.38,6.38,0,0,1,106,12.1c.32-.38.64-.8,1-1.23a2.87,2.87,0,0,1,1.17-.93.78.78,0,0,1,.26-.06.56.56,0,0,1,0,.19,14.48,14.48,0,0,0-.24,1.84,5.44,5.44,0,0,1-.43,1.71c-.24.48-.48,1-.69,1.5a8.57,8.57,0,0,0-.51,1.58.71.71,0,0,0-.08.18,7.85,7.85,0,0,0-1.09,1.69,16.65,16.65,0,0,1-.92,1.64c-.52.79-1,1.57-1.52,2.34s-1,1.55-1.51,2.34a4.34,4.34,0,0,1-.62.78,2.84,2.84,0,0,0-.67,1.16h0l0,0-.51.3,0,.17a1,1,0,0,1-.28.53,2.76,2.76,0,0,0-.55.65,8.28,8.28,0,0,1-.82,1.1l-.86,1-.09.11a5,5,0,0,1-.47.6l-.59.69-.1.14c.07-.17.14-.34.2-.51.19-.54.41-1.09.64-1.64l.26-.88a1.6,1.6,0,0,1,.32-.6,1.46,1.46,0,0,0,.34-1.05.62.62,0,0,1,0-.18,1.64,1.64,0,0,0,.68-.93c.08-.29.16-.57.22-.82a12.28,12.28,0,0,1,1-2,10,10,0,0,0,1-2.19,1.87,1.87,0,0,1,.31-.54c.18-.22.36-.46.53-.71l0-.07.56-1.24a2.62,2.62,0,0,1,.69-.92l.16-.15ZM90.76,51.19a1.33,1.33,0,0,1-.05-.75,2.22,2.22,0,0,0,.07-.57v-.55a1.84,1.84,0,0,1,.14-1.11l0,0c.08-.25.15-.48.21-.71a1.81,1.81,0,0,0,0-1,3.69,3.69,0,0,0,.51-1.75A2.18,2.18,0,0,1,92,43.7h0l0,.06c.2.43.41.87.63,1.31a4.62,4.62,0,0,1,.4,1.29,9.67,9.67,0,0,1,0,2c-.06.67-.15,1.35-.26,2a4.52,4.52,0,0,1-.41,1.24,6.16,6.16,0,0,1-.74,1.16c-.15.17-.24.2-.25.2s-.11-.05-.25-.28A1.92,1.92,0,0,1,91,52.4a.17.17,0,0,1,0-.12v-.1a2.4,2.4,0,0,0-.2-1M72,21.9v-.1a1.41,1.41,0,0,0,0-.28,4.31,4.31,0,0,0,1-1.93,4.4,4.4,0,0,1,.81-1.67l.07-.08,0-.11a3.28,3.28,0,0,1,.37-1.05l.59-1.07c.27-.51.55-1,.81-1.55a12.31,12.31,0,0,1,.83-1.45c.2-.32.41-.68.61-1.06s.39-.71.56-1,.61-.82.91-1.2.58-.7.87-1a.67.67,0,0,1,.29-.1,1,1,0,0,0,.44-.14.59.59,0,0,1,0,.29v0c-.2.64-.39,1.28-.54,1.92A4.86,4.86,0,0,1,78.77,12l0,0a2.72,2.72,0,0,0-.31.8.83.83,0,0,1-.28.43.55.55,0,0,0-.25.63s0,0,0,.06a.79.79,0,0,0,0,.3,3,3,0,0,0-.67.89c-.16.32-.31.65-.46,1a9.59,9.59,0,0,1-.42.91,2.39,2.39,0,0,1-.56.68l-.11.09,0,.14a3.49,3.49,0,0,1-.57,1.32c-.33.44-.63.89-.91,1.33l0,0a19.29,19.29,0,0,1-1.58,2.63A6.47,6.47,0,0,1,72,24a2.53,2.53,0,0,0-.53,1.06,1.32,1.32,0,0,0-.66.82,1.17,1.17,0,0,1-.3.55l0,.06-.3.42c.19-.51.38-1,.58-1.56s.37-1,.51-1.55a5.06,5.06,0,0,1,.57-1.28l0,0a1,1,0,0,0,.1-.45s0-.06,0-.08Z"/><path class="cls-5" d="M33.91,51.19A6.21,6.21,0,0,0,35.1,52a10.64,10.64,0,0,0,3,1.22,4.2,4.2,0,0,0,1.09.15,3.58,3.58,0,0,0,1-.15A15.63,15.63,0,0,1,42,52.84l.17,0,.1-.14a1,1,0,0,1,.58-.37A2.31,2.31,0,0,0,44,51.66l0,0,.41-.51a1.8,1.8,0,0,1,.39-.39c.14-.12.28-.22.4-.31a2.58,2.58,0,0,0,1-1.2,1.54,1.54,0,0,1,.23-.43,2.06,2.06,0,0,0,.33-.82,1.2,1.2,0,0,0-.15-1,1.08,1.08,0,0,0-.77-.44,1,1,0,0,0-.93.32,1.21,1.21,0,0,0-.44.93c0,.17,0,.19-.19.34a2.18,2.18,0,0,0-.44.46.87.87,0,0,1-.11.16,1.09,1.09,0,0,0-.34.43,1.4,1.4,0,0,1-.53.42A6.21,6.21,0,0,1,42,50a2.62,2.62,0,0,1-.86.14,1.08,1.08,0,0,1-.52-.09c-.48-.3-1-.57-1.48-.83a1.3,1.3,0,0,1-.68-1.07v-.07l0-.06a1.17,1.17,0,0,0-.18-.26l0-.05,0-.06,0,0a3.25,3.25,0,0,1-.74-1.26A15.85,15.85,0,0,1,37,44.72c0-.06,0-.14-.07-.21v-.08c0-.11,0-.16,0-.19a.76.76,0,0,0,0-.16,1.47,1.47,0,0,1,0-.22c0-.13,0-.22-.06-.3a2,2,0,0,1,0-.49c0-.17,0-.26,0-.34a2.07,2.07,0,0,1,0-.42c0-.58.08-1.16.13-1.72A16.31,16.31,0,0,0,37,38.86a.83.83,0,0,1,.11-.45,1.48,1.48,0,0,0,.27-.88,10.09,10.09,0,0,1,.6-3.41,1.11,1.11,0,0,0,.14-.79l0-.09c-.12-.3,0-.36.12-.44a.94.94,0,0,0,.35-.84v-.08a.62.62,0,0,1,0-.33,2.35,2.35,0,0,1,.13-.43,7.26,7.26,0,0,0,.54-1.9,3.77,3.77,0,0,1,.6-1.57l0,0A1.38,1.38,0,0,0,40,27a1.84,1.84,0,0,1,.22-.87,7.42,7.42,0,0,0,.6-1.51,14.22,14.22,0,0,1,.43-1.42,14.25,14.25,0,0,0,.76-2,15,15,0,0,1,.73-1.86,3.51,3.51,0,0,0,.36-1.25,1.41,1.41,0,0,1,.35-.77.86.86,0,0,0,.29-.71,1.17,1.17,0,0,1,.07-.38,8,8,0,0,0,.75-1.87,5.79,5.79,0,0,1,.71-1.64.65.65,0,0,0,.13-.42v-.07a.53.53,0,0,1,0-.33c.08-.17.17-.33.26-.49s.18-.36.26-.55a1.51,1.51,0,0,0,.1-.64,4.42,4.42,0,0,0,.67-1.61,8.85,8.85,0,0,1,.46-1.55l0-.06a3.34,3.34,0,0,1,.26-.71,1.38,1.38,0,0,0,.08-1L47.79,5A.79.79,0,0,0,48,4.47V4.4a3.07,3.07,0,0,1,0-1.13,3.83,3.83,0,0,0,0-1.43,1.92,1.92,0,0,0-.41-.91A2.9,2.9,0,0,0,46.9.3a2.44,2.44,0,0,0-1-.3A1.81,1.81,0,0,0,45,.19c-.55.29-1.08.6-1.58.92A7.39,7.39,0,0,0,42,2.35,16.63,16.63,0,0,0,40.7,3.62c-.4.45-.79.91-1.19,1.38s-.78,1-1.14,1.43-.7,1-1,1.51a13,13,0,0,1-.9,1.26,5,5,0,0,0-.84,1.45,1.15,1.15,0,0,0-.68,1.2.37.37,0,0,1-.1.11.93.93,0,0,0-.53.5l-.17.36a8.23,8.23,0,0,0-.66,1.24,2.69,2.69,0,0,1-.67.92.78.78,0,0,0-.38.67A3.24,3.24,0,0,1,31.74,17a5.43,5.43,0,0,0-1,1.55,7.62,7.62,0,0,1-.46.9c-.17.29-.36.57-.56.85A7,7,0,0,0,28.87,22a2.68,2.68,0,0,1-.9,1.23l0,0c-.15.15-.18.36-.18.73a.57.57,0,0,1-.17.42,1.15,1.15,0,0,0-.35.41l-.18.36c-.25.47-.51.93-.77,1.38s-.54,1-.79,1.49a7.94,7.94,0,0,1-.71,1.29A5.81,5.81,0,0,0,24,30.76c0,.1-.08.11-.11.12l-.31.08a7,7,0,0,0,.1-.93,1.62,1.62,0,0,1,.23-.78,2.9,2.9,0,0,0,.44-1.57,1.2,1.2,0,0,1,.49-.95L25,26.6v-.42a.75.75,0,0,1,0-.43,5.21,5.21,0,0,1,.28-.52l0-.05A9.27,9.27,0,0,0,26,23.33a5.06,5.06,0,0,1,.59-1.54.71.71,0,0,0,.16-.6,2,2,0,0,1,0-.25v-.06l0-.07a.1.1,0,0,1,0-.11.85.85,0,0,0,.4-.58c0-.12,0-.26.07-.43l.11-.54a2.59,2.59,0,0,1,.14-.45l0-.06a15.33,15.33,0,0,1,.67-2.05,6.25,6.25,0,0,0,.46-2.37.85.85,0,0,0,.38-.68,1.13,1.13,0,0,1,0-.3v-.06a15.09,15.09,0,0,1,.28-1.66,15.38,15.38,0,0,0,.3-1.74,7,7,0,0,0,.09-1.42A7.51,7.51,0,0,0,29.45,7,1.13,1.13,0,0,0,28,6.09l-1.2.29A3.76,3.76,0,0,0,25.5,7a13.5,13.5,0,0,1-1.18.85A4.88,4.88,0,0,0,23.09,9a2.38,2.38,0,0,1-.51.44,2.23,2.23,0,0,0-.71.69,5.73,5.73,0,0,1-1,1.27,9.58,9.58,0,0,0-1.24,1.43,4.65,4.65,0,0,0-.42.8s-.06.16-.39.19h-.15l-.11.11a.57.57,0,0,0-.18.41v.09c.05.23,0,.29-.07.33a2.9,2.9,0,0,0-.62.73c-.39.51-.77,1-1.12,1.59l-.2.31a5.15,5.15,0,0,1,.16-.56,9.41,9.41,0,0,0,.28-1.08c.18-1,.39-2,.64-2.91s.48-2,.7-3c.07-.38.15-.77.26-1.17a8.33,8.33,0,0,0,.22-1.31,4.36,4.36,0,0,1,.36-1,2,2,0,0,0,.13-1.52,1.27,1.27,0,0,0,.24-.84c0-.2,0-.38,0-.55a1.63,1.63,0,0,0-1.13-1.74c-.29-.11-.61-.21-.95-.31a1.21,1.21,0,0,0-1.33.57.72.72,0,0,0-.32.17,1.93,1.93,0,0,0-.83,1,1.21,1.21,0,0,1-.48.58l-.2.13v.47c0,.26,0,.3-.13.34l-.06,0a.81.81,0,0,0-.37.51c0,.08,0,.16-.07.26a25,25,0,0,1-1,2.84A15.13,15.13,0,0,1,11,10.81,17.68,17.68,0,0,1,8.31,14c-.39.36-.12.16-.25.3a5.09,5.09,0,0,1-1,.77L7,15.12l-.09.06-.1,0-.14,0A2.69,2.69,0,0,0,5.49,16a2,2,0,0,1-1,.56l-.52.11a1,1,0,0,0-.58.36l-.1.1c-.24.25-.28.29-.52.33l-.29,0a2.57,2.57,0,0,0-.82.2,2.63,2.63,0,0,0-.43.2A2.12,2.12,0,0,1,.84,18L.77,18l-.06.05c-.39.35-1,1-.56,1.51l0,0a1.47,1.47,0,0,0,1.53.59,4.26,4.26,0,0,0,1-.24L2.92,20a2.59,2.59,0,0,1,.56-.08h0a9,9,0,0,0,2.42-1l.39-.21.06,0A3.81,3.81,0,0,1,7,18.33l.06,0,.26-.1A1.71,1.71,0,0,0,8,17.82a.67.67,0,0,1,.2-.12l.26-.15c.29-.19.34-.16.61-.36s.17-.17.26-.25a3.3,3.3,0,0,1,.46-.38,10.9,10.9,0,0,0,.93-.75c-.06.23-.13.46-.21.68a8.24,8.24,0,0,0-.44,1.81h0a1.14,1.14,0,0,0-.42,1.32v0a.6.6,0,0,1-.1.36,9.23,9.23,0,0,0-.7,2.3,13.31,13.31,0,0,1-.54,2.11,10.41,10.41,0,0,0-.5,1.84c-.11.59-.25,1.19-.42,1.78A17.31,17.31,0,0,0,7,29.91a8.12,8.12,0,0,1-.49,1.67,1.14,1.14,0,0,0-.16.65,3.11,3.11,0,0,1-.07.71q-.08.36-.18.72a17.2,17.2,0,0,0-.66,3.89c0,.55,0,1.1,0,1.62a4,4,0,0,0,.45,1.71A2.18,2.18,0,0,0,7.55,42a2.11,2.11,0,0,0,2-.64A6.41,6.41,0,0,0,11,38.86c.26-.86.55-1.71.87-2.51l0-.11,0-.1a2.52,2.52,0,0,1,.18-1.35,6.14,6.14,0,0,0,.47-1.65c0-.29.07-.59.1-.92a2.23,2.23,0,0,1,.23-.76,5.48,5.48,0,0,0,.52-1.74,8.42,8.42,0,0,1,.36-1.58,11.41,11.41,0,0,1,.62-1.49,5.71,5.71,0,0,0,.52-1.72l.21-.22,0-.08a2,2,0,0,1,.21-.38,2.45,2.45,0,0,0,.31-.55,7,7,0,0,0,.53-1.27,1.33,1.33,0,0,1,.6-.75l.07-.06a.67.67,0,0,0,.24-.46v-.07a.52.52,0,0,1,0-.33,3,3,0,0,1,.28-.44l.35-.43a1.17,1.17,0,0,0,.29-.67c.65-.9,1.28-1.8,1.86-2.7a29.66,29.66,0,0,1,1.95-2.62c.66-.76,1.35-1.5,2-2.2-.06.16-.12.31-.19.46a7,7,0,0,0-.28.8,2.37,2.37,0,0,0-.09.8,1,1,0,0,0-.51.72c0,.19-.07.39-.11.6l-.21.84a2.09,2.09,0,0,1-.32.68,4.7,4.7,0,0,0-.59,1.32c-.1.39-.22.78-.36,1.18l-1.08,3.23-.54,2a20.57,20.57,0,0,1-.62,2,1.42,1.42,0,0,0-.08.79.34.34,0,0,1,0,.09,1.62,1.62,0,0,0-.41.9,2.31,2.31,0,0,0,.09.85v0s0,0,0,.11l-.05.06,0,.07a3.14,3.14,0,0,0-.15.74,2.71,2.71,0,0,1-.12.55v.06a6.15,6.15,0,0,0-.06,1.91c.07.59.16,1.21.27,1.81a2,2,0,0,0,.72,1.32,3.48,3.48,0,0,0,1.32.58,2.32,2.32,0,0,0,1.6-.17,3.79,3.79,0,0,1,1.06-.36.65.65,0,0,0,.41-.23l.06-.07a3.33,3.33,0,0,1,.77-.85,5.23,5.23,0,0,0,1-1l0,0a2.35,2.35,0,0,0,.29-.67.3.3,0,0,1,.15-.2l.09-.06a4.88,4.88,0,0,0,1-1.36c.18-.41.41-.85.64-1.29A2.08,2.08,0,0,1,28,29.5a1.14,1.14,0,0,0,.43-.85,1,1,0,0,1,.3-.77,2,2,0,0,0,.6-1.18,20.51,20.51,0,0,0,1.29-2.51,19.5,19.5,0,0,1,1.28-2.49,6.6,6.6,0,0,0,.57-1.2,2.8,2.8,0,0,1,.58-.95,2.9,2.9,0,0,0,.56-1.32.87.87,0,0,1,.52-.65l.2-.1,0-.22a2,2,0,0,1,.43-1,6.09,6.09,0,0,0,.71-1.17c.28-.56.58-1.11.89-1.63s.66-1,1-1.51a11,11,0,0,0,1.08-1.63,5,5,0,0,1,1.13-1.38.86.86,0,0,0,.23-.33l0,0,0-.05,0-.06L40,8.29v0a5.25,5.25,0,0,1-.37,1.12,10.31,10.31,0,0,0-.39,1q-.15.45-.36.93A10.23,10.23,0,0,0,38.33,13a3,3,0,0,1-.63,1.26,1,1,0,0,0-.21.66V15a.36.36,0,0,1,0,.21c-.05.12-.11.28-.18.44a13.9,13.9,0,0,0-.74,2,13.83,13.83,0,0,1-.71,1.85,9.27,9.27,0,0,0-.45,1.41c-.1.44-.22.9-.36,1.36l0,0a.87.87,0,0,1-.15.36,2,2,0,0,0-.28.69,7,7,0,0,1-.38,1.62c-.2.54-.37,1.12-.52,1.69s-.36,1.35-.55,2-.37,1.36-.52,2.07c-.06.19-.14.37-.21.55a1.25,1.25,0,0,0-.05.86,1.76,1.76,0,0,0-.42,1c0,.26,0,.54-.08.82a8.11,8.11,0,0,1-.34,1.7,2,2,0,0,0-.25.86v.07a2.23,2.23,0,0,1-.07,1,4.21,4.21,0,0,0-.21,1.3v.67A1.33,1.33,0,0,1,31,40a2.35,2.35,0,0,0-.17,1.5l0,.09a.48.48,0,0,0,0,.13l-.06.13-.12.26.05.15a2,2,0,0,1,.09,1.23A2.59,2.59,0,0,0,31,45.09l0,.08v.06a4.65,4.65,0,0,0,.81,2.85l.18.32,0,0a15.23,15.23,0,0,1,.88,1.46,4.79,4.79,0,0,0,1,1.29"/><path class="cls-5" d="M61.44,39.77a.14.14,0,0,1,0-.06.88.88,0,0,0-.79-.58.78.78,0,0,0-.77.26l-.14.14-.15.18-.54.71c-.29.42-.62.85-1,1.28a5.5,5.5,0,0,0-.71.87,2.05,2.05,0,0,1-.67.64l-.36.35,0,.06a3.41,3.41,0,0,1-1,1.25,7.87,7.87,0,0,0-.68.6v-.13a2.24,2.24,0,0,1,.13-.9,6.78,6.78,0,0,0,.36-2,12.8,12.8,0,0,1,.2-1.83,17.68,17.68,0,0,0,.44-2.5l.24-2.44.13-1.34a3.1,3.1,0,0,0-.29-1.56l0-.06a.45.45,0,0,1-.08-.22c0-.13-.14-.58-.82-.58l-.11,0a.21.21,0,0,1-.14,0,.82.82,0,0,0-.93.09,11.62,11.62,0,0,1-1.12.77,4.32,4.32,0,0,0-1.23,1.16,10.61,10.61,0,0,1-.77,1c-.29.35-.58.74-.87,1.16s-.8,1.17-1.15,1.77a14.84,14.84,0,0,1-1.15,1.69l0,0c-.19.31-.4.62-.62.92a2.24,2.24,0,0,1-.75.64c-.27.15-.43.17-.5.14s-.16-.17-.21-.46l0-.09a1,1,0,0,1,0-.25v0a9.88,9.88,0,0,1,0-1.34,3.42,3.42,0,0,1,.3-1.25l0,0a.79.79,0,0,1,.13-.26,1.13,1.13,0,0,0,.19-.62,3.41,3.41,0,0,1,.42-1.07,13.22,13.22,0,0,0,.69-1.22c.31-.58.66-1.16,1-1.73s.72-1.18,1.05-1.79A1.91,1.91,0,0,0,48.83,29l-.47-.56c-.15-.17-.32-.35-.55-.58a1.86,1.86,0,0,0-2.7.05l0,0a4.89,4.89,0,0,0-.69.87,1.6,1.6,0,0,1-.54.49.56.56,0,0,0-.42.59v.06c0,.14,0,.24,0,.28l-.46.46a1.44,1.44,0,0,0-.37.57c-.06.15-.12.3-.2.46a18.39,18.39,0,0,0-1.56,5.48,5.11,5.11,0,0,0,0,1.56c.06.46.13.92.21,1.36a3.79,3.79,0,0,0,1.1,2.39A2.22,2.22,0,0,0,43,43a2,2,0,0,1,.61.33,2.29,2.29,0,0,0,1.72.54,3.76,3.76,0,0,0,1.52-.58,9.29,9.29,0,0,0,1.39-1.16,17.09,17.09,0,0,0,1.1-1.32l.52-.7a.81.81,0,0,1,0,.54c-.1.22-.19.47-.28.71s-.09.21-.13.34a1.69,1.69,0,0,0-.08.5v.08a1.74,1.74,0,0,1-.08,1,9.46,9.46,0,0,0-.35,1.23c-.08.33-.15.68-.22,1s-.11.7-.15,1a11.5,11.5,0,0,1-.44,2.08,6.89,6.89,0,0,0-.3,2.31l0,0c-.16.26-.32.52-.45.78a1.55,1.55,0,0,1-.46.51,4.54,4.54,0,0,0-.71.57l-.56.56a9.56,9.56,0,0,0-1,1,2.79,2.79,0,0,1-.92.66c-.25.08-.37.37-.44.56l0,0c0,.17-.08.17-.13.17a.84.84,0,0,0-.82.57l0,.1s0,.15-.22.24a.62.62,0,0,0-.64.61s0,.11,0,.13a1.41,1.41,0,0,1-.29.18,2.32,2.32,0,0,0-.5.29.89.89,0,0,0-.35.47,1.32,1.32,0,0,0-.85.88l-.06,0c-.38.13-.58.26-.68.46l0,0a.78.78,0,0,1-.42.47,1.47,1.47,0,0,0-.76.81,4,4,0,0,0-1.3,1.49A3.09,3.09,0,0,1,35,63.82l-.07.06a.58.58,0,0,0-.18.42v.11c.06.23,0,.29,0,.3a2.58,2.58,0,0,0-.53.63,5.69,5.69,0,0,0-.72,1.41c-.16.47-.32.92-.49,1.36s-.24.67-.34,1a2.89,2.89,0,0,0-.11,1.13c0,.32,0,.62,0,.89s0,.54,0,.85a3.69,3.69,0,0,0,.88,2.34,3.55,3.55,0,0,0,2.09,1.41,11.53,11.53,0,0,0,2.22.22,7.9,7.9,0,0,0,4.05-1.22l0,0a1.63,1.63,0,0,1,.52-.3,1.62,1.62,0,0,0,.65-.46h0a1,1,0,0,0,1-.82l0-.08a2.39,2.39,0,0,0,1-.72l.73-.85q.38-.43.75-.9c.24-.31.48-.64.7-1,.65-1.07,1.21-2.09,1.67-3a14.4,14.4,0,0,1,.69-1.43,5.34,5.34,0,0,0,.54-1.59,2.41,2.41,0,0,0,.6-1.3A8.49,8.49,0,0,1,51.15,61a14.33,14.33,0,0,0,.53-1.37A6.56,6.56,0,0,0,52,58.18v0a2.51,2.51,0,0,1,.32-1.2,2.58,2.58,0,0,0,.3-1.58.8.8,0,0,0,0-.21q.12-.55.21-1.08a5.62,5.62,0,0,1,.25-1,2.22,2.22,0,0,0,.08-1.28.65.65,0,0,1,.25-.64.54.54,0,0,0,.13-.59v-.08a2.7,2.7,0,0,1,1.11-2.35,20.38,20.38,0,0,0,3-2.91c.65-.69,1.29-1.41,1.88-2.12.41-.5.84-1.06,1.31-1.72l.06-.1.15-.26.06-.09.12-.15a1.58,1.58,0,0,0,.22-.54,1,1,0,0,0-.07-.51M42.15,59.29A4.38,4.38,0,0,0,43.42,58a3.37,3.37,0,0,0,1.41-1.2,2.63,2.63,0,0,1,1.11-.95,1.75,1.75,0,0,0,.54-.41l.3-.4a.71.71,0,0,1,.1-.14L46.7,56q-.15.91-.39,1.89c-.08.32-.15.64-.22,1s-.12.6-.21.94A25.69,25.69,0,0,1,45,63c-.28.85-.55,1.73-.8,2.61a11.91,11.91,0,0,1-1,2.45,1.11,1.11,0,0,0-.17.47,2,2,0,0,1-.3.92,7.37,7.37,0,0,1-.7.9l0,0a2.57,2.57,0,0,0-.26.57,1.15,1.15,0,0,0-.21.33.24.24,0,0,1-.07.12l-1.81,1.45,0,0a.52.52,0,0,1-.37.18h-.09c-.19,0-.38.06-.56.08a1.6,1.6,0,0,0-.76.31,5.76,5.76,0,0,0-1.19-.19,2.16,2.16,0,0,1-1-.27,1.71,1.71,0,0,1-.46-.41c-.14-.18-.26-.36-.37-.53a3.21,3.21,0,0,1-.26-2.66q.24-.84.51-1.59a5,5,0,0,1,.68-1.3A5.28,5.28,0,0,0,36.66,65a4.37,4.37,0,0,0,1.14-1.25,3.87,3.87,0,0,1,.89-1c.17-.12.33-.25.48-.38a2.21,2.21,0,0,0,.48-.59l0-.05a1.71,1.71,0,0,1,.67-.66,1.67,1.67,0,0,0,.71-.64,3.72,3.72,0,0,1,1.09-1.14"/></g></g></g></svg>