<svg width="62" height="62" viewBox="0 0 62 62" fill="none" xmlns="http://www.w3.org/2000/svg">
<rect width="62" height="62" rx="9" fill="white" fill-opacity="0.15"/>
<path d="M20.8267 25.2093C23.5773 25.9133 24.0213 28.9507 25.096 30.3693C26.5227 32.2533 27.8627 32.0067 29.352 33.8947C31.7587 36.9467 31.1013 41.5013 31.1013 42.8347M41.6667 35H40.3333C38.9188 35 37.5623 35.5619 36.5621 36.5621C35.5619 37.5623 35 38.9188 35 40.3333V41.6667M26.4493 20.3227C26.4493 21.4187 26.5987 22.8373 28.4693 23.7627C30.3387 24.6867 32.36 24.2307 32.36 26.8747C32.36 27.2427 32.36 29.552 34.9893 29.552C37.6907 29.5933 37.6907 27.3147 37.6907 26.8747C37.6907 26.008 38.3933 25.6747 39.26 25.6747H41.6667M43 31C43 32.5759 42.6896 34.1363 42.0866 35.5922C41.4835 37.0481 40.5996 38.371 39.4853 39.4853C38.371 40.5996 37.0481 41.4835 35.5922 42.0866C34.1363 42.6896 32.5759 43 31 43C29.4241 43 27.8637 42.6896 26.4078 42.0866C24.9519 41.4835 23.629 40.5996 22.5147 39.4853C21.4004 38.371 20.5165 37.0481 19.9134 35.5922C19.3104 34.1363 19 32.5759 19 31C19 27.8174 20.2643 24.7652 22.5147 22.5147C24.7652 20.2643 27.8174 19 31 19C34.1826 19 37.2348 20.2643 39.4853 22.5147C41.7357 24.7652 43 27.8174 43 31Z" stroke="white" stroke-width="1.5" stroke-linecap="round"/>
</svg>
