<svg width="62" height="62" viewBox="0 0 62 62" fill="none" xmlns="http://www.w3.org/2000/svg">
<rect width="62" height="62" rx="9" fill="white" fill-opacity="0.15"/>
<path d="M37.3324 17.6667H43.4044L43.5378 17.6854L43.6698 17.7227L43.7498 17.7574C43.8564 17.8036 43.9538 17.8703 44.0418 17.9574L44.0951 18.0161L44.1538 18.0921L44.2258 18.2121L44.2778 18.3321L44.3031 18.4174L44.3218 18.5027L44.3338 18.6294V24.6721C44.3337 24.9254 44.2374 25.1693 44.0645 25.3545C43.8915 25.5396 43.6547 25.6522 43.4019 25.6694C43.1492 25.6867 42.8992 25.6074 42.7027 25.4475C42.5062 25.2876 42.3776 25.0591 42.3431 24.8081L42.3338 24.6721V21.0787L33.7471 29.6654C33.5778 29.8348 33.3533 29.9377 33.1145 29.9556C32.8757 29.9735 32.6384 29.905 32.4458 29.7627L32.3338 29.6667L28.2938 25.7867L20.7071 33.3721C20.5287 33.551 20.2891 33.6557 20.0366 33.6652C19.7841 33.6747 19.5373 33.5883 19.346 33.4233C19.1546 33.2582 19.0328 33.0269 19.0051 32.7757C18.9773 32.5246 19.0457 32.2722 19.1964 32.0694L19.2938 31.9574L27.5871 23.6641C27.7566 23.4949 27.9811 23.3922 28.22 23.3746C28.4588 23.357 28.696 23.4256 28.8884 23.5681L29.0004 23.6641L33.0404 27.5441L40.9178 19.6667H37.3311C37.0897 19.6664 36.8565 19.5788 36.6747 19.42C36.4929 19.2612 36.3746 19.0419 36.3418 18.8027L36.3324 18.6667C36.3324 18.4251 36.42 18.1916 36.5788 18.0095C36.7376 17.8274 36.957 17.7089 37.1964 17.6761L37.3324 17.6667ZM20.0004 37.6667C20.2657 37.6667 20.52 37.7721 20.7075 37.9596C20.8951 38.1472 21.0004 38.4015 21.0004 38.6667V43.3334C21.0004 43.5986 20.8951 43.853 20.7075 44.0405C20.52 44.2281 20.2657 44.3334 20.0004 44.3334C19.7352 44.3334 19.4809 44.2281 19.2933 44.0405C19.1058 43.853 19.0004 43.5986 19.0004 43.3334V38.6667C19.0004 38.4015 19.1058 38.1472 19.2933 37.9596C19.4809 37.7721 19.7352 37.6667 20.0004 37.6667ZM27.6671 33.3334C27.6671 33.0682 27.5617 32.8138 27.3742 32.6263C27.1867 32.4388 26.9323 32.3334 26.6671 32.3334C26.4019 32.3334 26.1475 32.4388 25.96 32.6263C25.7725 32.8138 25.6671 33.0682 25.6671 33.3334V43.3334C25.6671 43.5986 25.7725 43.853 25.96 44.0405C26.1475 44.2281 26.4019 44.3334 26.6671 44.3334C26.9323 44.3334 27.1867 44.2281 27.3742 44.0405C27.5617 43.853 27.6671 43.5986 27.6671 43.3334V33.3334ZM33.3338 35.0001C33.599 35.0001 33.8533 35.1054 34.0409 35.293C34.2284 35.4805 34.3338 35.7349 34.3338 36.0001V43.3334C34.3338 43.5986 34.2284 43.853 34.0409 44.0405C33.8533 44.2281 33.599 44.3334 33.3338 44.3334C33.0686 44.3334 32.8142 44.2281 32.6267 44.0405C32.4391 43.853 32.3338 43.5986 32.3338 43.3334V36.0001C32.3338 35.7349 32.4391 35.4805 32.6267 35.293C32.8142 35.1054 33.0686 35.0001 33.3338 35.0001ZM41.0004 29.3334C41.0004 29.0682 40.8951 28.8138 40.7075 28.6263C40.52 28.4388 40.2657 28.3334 40.0004 28.3334C39.7352 28.3334 39.4809 28.4388 39.2933 28.6263C39.1058 28.8138 39.0004 29.0682 39.0004 29.3334V43.3334C39.0004 43.5986 39.1058 43.853 39.2933 44.0405C39.4809 44.2281 39.7352 44.3334 40.0004 44.3334C40.2657 44.3334 40.52 44.2281 40.7075 44.0405C40.8951 43.853 41.0004 43.5986 41.0004 43.3334V29.3334Z" fill="white"/>
</svg>
