<svg width="54" height="54" viewBox="0 0 54 54" fill="none" xmlns="http://www.w3.org/2000/svg">
<rect width="54" height="54" rx="9" fill="#64009B"/>
<path d="M20.3329 29.6667C19.7509 29.6676 19.1761 29.7955 18.6486 30.0414C18.1211 30.2874 17.6536 30.6455 17.2788 31.0907C16.9039 31.536 16.6308 32.0577 16.4784 32.6194C16.326 33.1811 16.298 33.7693 16.3964 34.343C16.4948 34.9166 16.7172 35.4619 17.0481 35.9407C17.379 36.4195 17.8104 36.8204 18.3121 37.1153C18.8139 37.4102 19.374 37.592 19.9533 37.6481C20.5326 37.7042 21.1172 37.6332 21.6662 37.4401" stroke="white" stroke-width="1.5" stroke-linecap="round" stroke-linejoin="round"/>
<path d="M16.6849 31.8067C15.887 31.4226 15.1973 30.8458 14.678 30.1284C14.1588 29.411 13.8263 28.5757 13.7107 27.6977C13.5951 26.8197 13.6999 25.9267 14.0157 25.0994C14.3315 24.272 14.8483 23.5363 15.5196 22.9587M15.5596 22.8507C15.1223 22.1964 14.9306 21.4084 15.0185 20.6263C15.1064 19.8443 15.4682 19.1185 16.0398 18.5776C16.6114 18.0366 17.356 17.7153 18.1417 17.6707C18.9274 17.626 19.7036 17.8607 20.3329 18.3334M20.6502 18.42C20.4375 17.9681 20.3291 17.4741 20.333 16.9746C20.3369 16.4752 20.453 15.9829 20.6727 15.5344C20.8924 15.0858 21.2101 14.6923 21.6023 14.3831C21.9945 14.0738 22.4513 13.8566 22.9387 13.7476C23.4262 13.6386 23.9319 13.6405 24.4185 13.7532C24.9051 13.866 25.3601 14.0866 25.75 14.3988C26.1399 14.7111 26.4546 15.107 26.6709 15.5572C26.8871 16.0074 26.9995 16.5005 26.9996 17M26.9996 17V37.6667M26.9996 17C26.9996 16.5005 27.112 16.0074 27.3283 15.5572C27.5445 15.107 27.8592 14.7111 28.2491 14.3988C28.639 14.0866 29.094 13.866 29.5806 13.7532C30.0672 13.6405 30.573 13.6386 31.0604 13.7476C31.5479 13.8566 32.0046 14.0738 32.3968 14.3831C32.789 14.6923 33.1067 15.0858 33.3264 15.5344C33.5462 15.9829 33.6622 16.4752 33.6661 16.9746C33.67 17.4741 33.5616 17.9681 33.3489 18.42M26.9996 37.6667C26.9996 38.3739 26.7186 39.0522 26.2185 39.5523C25.7184 40.0524 25.0401 40.3334 24.3329 40.3334C23.6256 40.3334 22.9474 40.0524 22.4473 39.5523C21.9472 39.0522 21.6662 38.3739 21.6662 37.6667M26.9996 37.6667C26.9996 38.3739 27.2805 39.0522 27.7806 39.5523C28.2807 40.0524 28.959 40.3334 29.6662 40.3334M26.9996 20.3334C26.9996 21.3942 27.421 22.4116 28.1711 23.1618C28.9213 23.9119 29.9387 24.3334 30.9996 24.3334M38.4796 22.9587C39.0617 23.4588 39.5287 24.0789 39.8486 24.7765C40.1685 25.4741 40.3337 26.2326 40.3329 27C40.3329 27.9374 40.0916 28.8187 39.6662 29.584M38.4396 22.8507C38.8768 22.1964 39.0685 21.4084 38.9806 20.6263C38.8927 19.8443 38.5309 19.1185 37.9593 18.5776C37.3877 18.0366 36.6431 17.7153 35.8574 17.6707C35.0717 17.626 34.2955 17.8607 33.6662 18.3334M38.3329 38.3334L40.3329 40.3334M32.3329 35.6667C32.3329 36.5507 32.6841 37.3986 33.3092 38.0237C33.9343 38.6488 34.7822 39 35.6662 39C36.5503 39 37.3981 38.6488 38.0232 38.0237C38.6484 37.3986 38.9996 36.5507 38.9996 35.6667C38.9996 34.7826 38.6484 33.9348 38.0232 33.3097C37.3981 32.6845 36.5503 32.3334 35.6662 32.3334C34.7822 32.3334 33.9343 32.6845 33.3092 33.3097C32.6841 33.9348 32.3329 34.7826 32.3329 35.6667Z" stroke="white" stroke-width="1.5" stroke-linecap="round" stroke-linejoin="round"/>
</svg>
