<svg width="54" height="54" viewBox="0 0 54 54" fill="none" xmlns="http://www.w3.org/2000/svg">
<rect width="54" height="54" rx="9" fill="#64009B"/>
<path d="M16.8267 21.2093C19.5773 21.9133 20.0213 24.9507 21.096 26.3693C22.5227 28.2533 23.8627 28.0067 25.352 29.8947C27.7587 32.9467 27.1013 37.5013 27.1013 38.8347M37.6667 31H36.3333C34.9188 31 33.5623 31.5619 32.5621 32.5621C31.5619 33.5623 31 34.9188 31 36.3333V37.6667M22.4493 16.3227C22.4493 17.4187 22.5987 18.8373 24.4693 19.7627C26.3387 20.6867 28.36 20.2307 28.36 22.8747C28.36 23.2427 28.36 25.552 30.9893 25.552C33.6907 25.5933 33.6907 23.3147 33.6907 22.8747C33.6907 22.008 34.3933 21.6747 35.26 21.6747H37.6667M39 27C39 28.5759 38.6896 30.1363 38.0866 31.5922C37.4835 33.0481 36.5996 34.371 35.4853 35.4853C34.371 36.5996 33.0481 37.4835 31.5922 38.0866C30.1363 38.6896 28.5759 39 27 39C25.4241 39 23.8637 38.6896 22.4078 38.0866C20.9519 37.4835 19.629 36.5996 18.5147 35.4853C17.4004 34.371 16.5165 33.0481 15.9134 31.5922C15.3104 30.1363 15 28.5759 15 27C15 23.8174 16.2643 20.7652 18.5147 18.5147C20.7652 16.2643 23.8174 15 27 15C30.1826 15 33.2348 16.2643 35.4853 18.5147C37.7357 20.7652 39 23.8174 39 27Z" stroke="white" stroke-width="1.5" stroke-linecap="round"/>
</svg>
