<svg width="54" height="54" viewBox="0 0 54 54" fill="none" xmlns="http://www.w3.org/2000/svg">
<rect width="54" height="54" rx="9" fill="#64009B"/>
<path d="M40.3337 27.0001H13.667M27.0003 13.6667V40.3334M28.3337 27.0001C28.3337 28.4146 28.8956 29.7711 29.8958 30.7713C30.8959 31.7715 32.2525 32.3334 33.667 32.3334M25.667 27.0001C25.667 28.4146 25.1051 29.7711 24.1049 30.7713C23.1047 31.7715 21.7481 32.3334 20.3337 32.3334" stroke="white" stroke-width="1.5" stroke-linecap="round"/>
<path d="M27.0007 24.3801C27.0014 23.4147 27.3245 22.4771 27.9187 21.7163C28.5129 20.9554 29.3442 20.4147 30.2807 20.1801C32.418 19.6467 34.3553 21.5827 33.8207 23.7214C33.586 24.6578 33.0453 25.4891 32.2845 26.0833C31.5236 26.6775 30.5861 27.0006 29.6207 27.0014H27.0007M27.0007 24.3801V27.0014M27.0007 24.3801C26.9999 23.4147 26.6768 22.4771 26.0826 21.7163C25.4884 20.9554 24.6571 20.4147 23.7207 20.1801C21.5833 19.6467 19.646 21.5827 20.1807 23.7214C20.4153 24.6578 20.956 25.4891 21.7169 26.0833C22.4777 26.6775 23.4153 27.0006 24.3807 27.0014H27.0007" stroke="white" stroke-width="1.5"/>
<path d="M13.667 27.0001C13.667 20.7147 13.667 17.5721 15.619 15.6187C17.5737 13.6667 20.715 13.6667 27.0003 13.6667C33.2857 13.6667 36.4283 13.6667 38.3803 15.6187C40.3337 17.5734 40.3337 20.7147 40.3337 27.0001C40.3337 33.2854 40.3337 36.4281 38.3803 38.3801C36.4297 40.3334 33.2857 40.3334 27.0003 40.3334C20.715 40.3334 17.5723 40.3334 15.619 38.3801C13.667 36.4294 13.667 33.2854 13.667 27.0001Z" stroke="white" stroke-width="1.5"/>
</svg>
