<svg width="54" height="54" viewBox="0 0 54 54" fill="none" xmlns="http://www.w3.org/2000/svg">
<rect width="54" height="54" rx="9" fill="#64009B"/>
<path d="M33.3324 13.6667H39.4044L39.5378 13.6854L39.6698 13.7227L39.7498 13.7574C39.8564 13.8036 39.9538 13.8703 40.0418 13.9574L40.0951 14.0161L40.1538 14.0921L40.2258 14.2121L40.2778 14.3321L40.3031 14.4174L40.3218 14.5027L40.3338 14.6294V20.6721C40.3337 20.9254 40.2374 21.1693 40.0645 21.3545C39.8915 21.5396 39.6547 21.6522 39.4019 21.6694C39.1492 21.6867 38.8992 21.6074 38.7027 21.4475C38.5062 21.2876 38.3776 21.0591 38.3431 20.8081L38.3338 20.6721V17.0787L29.7471 25.6654C29.5778 25.8348 29.3533 25.9377 29.1145 25.9556C28.8757 25.9735 28.6384 25.905 28.4458 25.7627L28.3338 25.6667L24.2938 21.7867L16.7071 29.3721C16.5287 29.551 16.2891 29.6557 16.0366 29.6652C15.7841 29.6747 15.5373 29.5883 15.346 29.4233C15.1546 29.2582 15.0328 29.0269 15.0051 28.7757C14.9773 28.5246 15.0457 28.2722 15.1964 28.0694L15.2938 27.9574L23.5871 19.6641C23.7566 19.4949 23.9811 19.3922 24.22 19.3746C24.4588 19.357 24.696 19.4256 24.8884 19.5681L25.0004 19.6641L29.0404 23.5441L36.9178 15.6667H33.3311C33.0897 15.6664 32.8565 15.5788 32.6747 15.42C32.4929 15.2612 32.3746 15.0419 32.3418 14.8027L32.3324 14.6667C32.3324 14.4251 32.42 14.1916 32.5788 14.0095C32.7376 13.8274 32.957 13.7089 33.1964 13.6761L33.3324 13.6667ZM16.0004 33.6667C16.2657 33.6667 16.52 33.7721 16.7075 33.9596C16.8951 34.1472 17.0004 34.4015 17.0004 34.6667V39.3334C17.0004 39.5986 16.8951 39.853 16.7075 40.0405C16.52 40.2281 16.2657 40.3334 16.0004 40.3334C15.7352 40.3334 15.4809 40.2281 15.2933 40.0405C15.1058 39.853 15.0004 39.5986 15.0004 39.3334V34.6667C15.0004 34.4015 15.1058 34.1472 15.2933 33.9596C15.4809 33.7721 15.7352 33.6667 16.0004 33.6667ZM23.6671 29.3334C23.6671 29.0682 23.5617 28.8138 23.3742 28.6263C23.1867 28.4388 22.9323 28.3334 22.6671 28.3334C22.4019 28.3334 22.1475 28.4388 21.96 28.6263C21.7725 28.8138 21.6671 29.0682 21.6671 29.3334V39.3334C21.6671 39.5986 21.7725 39.853 21.96 40.0405C22.1475 40.2281 22.4019 40.3334 22.6671 40.3334C22.9323 40.3334 23.1867 40.2281 23.3742 40.0405C23.5617 39.853 23.6671 39.5986 23.6671 39.3334V29.3334ZM29.3338 31.0001C29.599 31.0001 29.8533 31.1054 30.0409 31.293C30.2284 31.4805 30.3338 31.7349 30.3338 32.0001V39.3334C30.3338 39.5986 30.2284 39.853 30.0409 40.0405C29.8533 40.2281 29.599 40.3334 29.3338 40.3334C29.0686 40.3334 28.8142 40.2281 28.6267 40.0405C28.4391 39.853 28.3338 39.5986 28.3338 39.3334V32.0001C28.3338 31.7349 28.4391 31.4805 28.6267 31.293C28.8142 31.1054 29.0686 31.0001 29.3338 31.0001ZM37.0004 25.3334C37.0004 25.0682 36.8951 24.8138 36.7075 24.6263C36.52 24.4388 36.2657 24.3334 36.0004 24.3334C35.7352 24.3334 35.4809 24.4388 35.2933 24.6263C35.1058 24.8138 35.0004 25.0682 35.0004 25.3334V39.3334C35.0004 39.5986 35.1058 39.853 35.2933 40.0405C35.4809 40.2281 35.7352 40.3334 36.0004 40.3334C36.2657 40.3334 36.52 40.2281 36.7075 40.0405C36.8951 39.853 37.0004 39.5986 37.0004 39.3334V25.3334Z" fill="white"/>
</svg>
