<svg width="62" height="62" viewBox="0 0 62 62" fill="none" xmlns="http://www.w3.org/2000/svg">
<rect width="62" height="62" rx="9" fill="white" fill-opacity="0.15"/>
<path d="M44.3337 31.0001H17.667M31.0003 17.6667V44.3334M32.3337 31.0001C32.3337 32.4146 32.8956 33.7711 33.8958 34.7713C34.8959 35.7715 36.2525 36.3334 37.667 36.3334M29.667 31.0001C29.667 32.4146 29.1051 33.7711 28.1049 34.7713C27.1047 35.7715 25.7481 36.3334 24.3337 36.3334" stroke="white" stroke-width="1.5" stroke-linecap="round"/>
<path d="M31.0007 28.3801C31.0014 27.4147 31.3245 26.4771 31.9187 25.7163C32.5129 24.9554 33.3442 24.4147 34.2807 24.1801C36.418 23.6467 38.3553 25.5827 37.8207 27.7214C37.586 28.6578 37.0453 29.4891 36.2845 30.0833C35.5236 30.6775 34.5861 31.0006 33.6207 31.0014H31.0007M31.0007 28.3801V31.0014M31.0007 28.3801C30.9999 27.4147 30.6768 26.4771 30.0826 25.7163C29.4884 24.9554 28.6571 24.4147 27.7207 24.1801C25.5833 23.6467 23.646 25.5827 24.1807 27.7214C24.4153 28.6578 24.956 29.4891 25.7169 30.0833C26.4777 30.6775 27.4153 31.0006 28.3807 31.0014H31.0007" stroke="white" stroke-width="1.5"/>
<path d="M17.667 31.0001C17.667 24.7147 17.667 21.5721 19.619 19.6187C21.5737 17.6667 24.715 17.6667 31.0003 17.6667C37.2857 17.6667 40.4283 17.6667 42.3803 19.6187C44.3337 21.5734 44.3337 24.7147 44.3337 31.0001C44.3337 37.2854 44.3337 40.4281 42.3803 42.3801C40.4297 44.3334 37.2857 44.3334 31.0003 44.3334C24.715 44.3334 21.5723 44.3334 19.619 42.3801C17.667 40.4294 17.667 37.2854 17.667 31.0001Z" stroke="white" stroke-width="1.5"/>
</svg>
