<svg width="62" height="62" viewBox="0 0 62 62" fill="none" xmlns="http://www.w3.org/2000/svg">
<rect width="62" height="62" rx="9" fill="white" fill-opacity="0.15"/>
<path d="M24.3329 33.6667C23.7509 33.6676 23.1761 33.7955 22.6486 34.0414C22.1211 34.2874 21.6536 34.6455 21.2788 35.0907C20.9039 35.536 20.6308 36.0577 20.4784 36.6194C20.326 37.1811 20.298 37.7693 20.3964 38.343C20.4948 38.9166 20.7172 39.4619 21.0481 39.9407C21.379 40.4195 21.8104 40.8204 22.3121 41.1153C22.8139 41.4102 23.374 41.592 23.9533 41.6481C24.5326 41.7042 25.1172 41.6332 25.6662 41.4401" stroke="white" stroke-width="1.5" stroke-linecap="round" stroke-linejoin="round"/>
<path d="M20.6849 35.8067C19.887 35.4226 19.1973 34.8458 18.678 34.1284C18.1588 33.411 17.8263 32.5757 17.7107 31.6977C17.5951 30.8197 17.6999 29.9267 18.0157 29.0994C18.3315 28.272 18.8483 27.5363 19.5196 26.9587M19.5596 26.8507C19.1223 26.1964 18.9306 25.4084 19.0185 24.6263C19.1064 23.8443 19.4682 23.1185 20.0398 22.5776C20.6114 22.0366 21.356 21.7153 22.1417 21.6707C22.9274 21.626 23.7036 21.8607 24.3329 22.3334M24.6502 22.42C24.4375 21.9681 24.3291 21.4741 24.333 20.9746C24.3369 20.4752 24.453 19.9829 24.6727 19.5344C24.8924 19.0858 25.2101 18.6923 25.6023 18.3831C25.9945 18.0738 26.4513 17.8566 26.9387 17.7476C27.4262 17.6386 27.9319 17.6405 28.4185 17.7532C28.9051 17.866 29.3601 18.0866 29.75 18.3988C30.1399 18.7111 30.4546 19.107 30.6709 19.5572C30.8871 20.0074 30.9995 20.5005 30.9996 21M30.9996 21V41.6667M30.9996 21C30.9996 20.5005 31.112 20.0074 31.3283 19.5572C31.5445 19.107 31.8592 18.7111 32.2491 18.3988C32.639 18.0866 33.094 17.866 33.5806 17.7532C34.0672 17.6405 34.573 17.6386 35.0604 17.7476C35.5479 17.8566 36.0046 18.0738 36.3968 18.3831C36.789 18.6923 37.1067 19.0858 37.3264 19.5344C37.5462 19.9829 37.6622 20.4752 37.6661 20.9746C37.67 21.4741 37.5616 21.9681 37.3489 22.42M30.9996 41.6667C30.9996 42.3739 30.7186 43.0522 30.2185 43.5523C29.7184 44.0524 29.0401 44.3334 28.3329 44.3334C27.6256 44.3334 26.9474 44.0524 26.4473 43.5523C25.9472 43.0522 25.6662 42.3739 25.6662 41.6667M30.9996 41.6667C30.9996 42.3739 31.2805 43.0522 31.7806 43.5523C32.2807 44.0524 32.959 44.3334 33.6662 44.3334M30.9996 24.3334C30.9996 25.3942 31.421 26.4116 32.1711 27.1618C32.9213 27.9119 33.9387 28.3334 34.9996 28.3334M42.4796 26.9587C43.0617 27.4588 43.5287 28.0789 43.8486 28.7765C44.1685 29.4741 44.3337 30.2326 44.3329 31C44.3329 31.9374 44.0916 32.8187 43.6662 33.584M42.4396 26.8507C42.8768 26.1964 43.0685 25.4084 42.9806 24.6263C42.8927 23.8443 42.5309 23.1185 41.9593 22.5776C41.3877 22.0366 40.6431 21.7153 39.8574 21.6707C39.0717 21.626 38.2955 21.8607 37.6662 22.3334M42.3329 42.3334L44.3329 44.3334M36.3329 39.6667C36.3329 40.5507 36.6841 41.3986 37.3092 42.0237C37.9343 42.6488 38.7822 43 39.6662 43C40.5503 43 41.3981 42.6488 42.0232 42.0237C42.6484 41.3986 42.9996 40.5507 42.9996 39.6667C42.9996 38.7826 42.6484 37.9348 42.0232 37.3097C41.3981 36.6845 40.5503 36.3334 39.6662 36.3334C38.7822 36.3334 37.9343 36.6845 37.3092 37.3097C36.6841 37.9348 36.3329 38.7826 36.3329 39.6667Z" stroke="white" stroke-width="1.5" stroke-linecap="round" stroke-linejoin="round"/>
</svg>
