<?xml version="1.0" encoding="UTF-8"?>
<svg id="Layer_1" xmlns="http://www.w3.org/2000/svg" version="1.1" viewBox="0 0 129 130">
  <!-- Generator: Adobe Illustrator 29.5.1, SVG Export Plug-In . SVG Version: 2.1.0 Build 141)  -->
  <defs>
    <style>
      .st0 {
        fill: #fff;
      }

      .st1 {
        opacity: .22;
      }

      .st2 {
        fill: #e6003c;
      }
    </style>
  </defs>
  <path class="st0" d="M64.5.000017h0C100.122368.000017,129,28.877649,129,64.500017v1c0,35.622368-28.877632,64.5-64.5,64.5h0C28.877632,130.000017,0,101.122385,0,65.500017v-1C0,28.877649,28.877632.000017,64.5.000017Z"/>
  <path class="st2" d="M19.350599,44.942018l-4.087899-1.598103-6.27891,1.491901.4902-1.253899,5.500509-1.275803-.186299.476501-3.1769-4.667999.450999-1.153702,3.602301,5.354702,4.087999,1.598099-.402,1.028301Z"/>
  <path class="st2" d="M23.0105,37.850816c-.3377.5616-.7668.979099-1.2873,1.252602-.528299.268898-1.0972.387699-1.706699.3563-.6096-.031403-1.214401-.227501-1.8144-.588203-.6-.360798-1.055201-.796898-1.365702-1.308197-.313499-.523701-.465399-1.0811-.455599-1.672199.0098-.591103.1859-1.171303.528099-1.740501.328402-.5462.732101-.947601,1.211102-1.204201.483599-.264301,1.0056-.374599,1.565899-.331001.564899.036003,1.139601.229702,1.724201.581203.077.046299.147699.094097.212299.143398.0693.041599.1416.0956.2169.1618l-2.9209,4.8577-.7731-.464802,2.580999-4.292297.2465.556698c-.707699-.425598-1.344799-.593998-1.9114-.505199-.569599.076401-1.025599.3992-1.3678.968498-.351601.584602-.432199,1.180202-.241899,1.786903.1873.594398.623199,1.097397,1.3078,1.509098.699999.420898,1.367899.5816,2.003799.482201.632799-.111801,1.129499-.467701,1.490299-1.067699.226702-.3769.344801-.756302.354401-1.138.0019-.386402-.1117-.737499-.340799-1.053299l.5273-.8769c.422899.516098.6555,1.095898.698,1.739399.0394.631199-.121201,1.2467-.482,1.846699Z"/>
  <path class="st2" d="M28.3636,30.304117c-.140499-.0695-.292601-.160299-.456299-.2722-.158001-.118801-.354601-.2754-.589901-.469801l-.042801.051901-2.5327-2.0923c-.4014-.3316-.7726-.481199-1.1138-.4487-.3424.019899-.682299.2339-1.019499.6422-.3316.4014-.5144.7917-.548401,1.171099-.0352.3668.084499.686901.3592.960402l-.660299.799299c-.4835-.457701-.7076-1.003799-.6724-1.6383s.3158-1.2701.8417-1.9067c.5431-.6574,1.1019-1.016701,1.676201-1.0777.5744-.0611,1.172998.1656,1.795799.680099l2.542999,2.101c.1523.1257.32.246801.503201.3633.1763.110701.3687.223101.5772.337101l-.6602.799299ZM26.9667,32.206316c-.451599.5467-.943199.874001-1.474899.982002-.532801.095398-1.031101-.0485-1.494699-.431499-.4636-.383003-.692001-.839401-.685101-1.369301.007-.5298.2101-1.142101.6094-1.836802l1.214899-2.104898.685101.566-1.153599,1.945999c-.2579.438999-.397001.8188-.417501,1.139601-.020399.3207.1077.5954.384501.823999.269899.223001.5483.301699.8354.236101.2927-.072502.5877-.288702.885-.6485.382999-.4636.590799-.9265.623301-1.3887.0313-.474701-.122601-.8522-.4617-1.132299l.848499.4739c.2614.4023.3547.8461.2798,1.3314-.0693.4783-.295399.9494-.6784,1.412998Z"/>
  <path class="st2" d="M30.288799,28.298217l-4.7134-4.993401.7344-.6931,1.201401,1.2728.049-.0462,3.511801,3.7206-.783201.7393ZM28.613701,24.954517l-1.245501-1.0646c-.283001-.5352-.379101-1.055401-.2883-1.560801.0907-.505301.3319-.942801.723598-1.3125.1632-.153999.2864-.245699.369801-.275l.7117.753901c-.045.0177-.096901.0543-.1556.1098-.064901.048899-.139801.1134-.2246.193499-.496101.468201-.733002.9757-.710701,1.5224.022699.534.2959,1.078501.819601,1.633301Z"/>
  <path class="st2" d="M36.049702,23.564518c-.677101.503399-1.3325.750099-1.966202.7402-.639-.017101-1.2015-.2924-1.6875-.825901l.832001-.618401c.312798.3155.668499.470501,1.067101.465.398499-.005499.8139-.168798,1.246098-.490099.381802-.2838.627201-.5781.736301-.882801.109001-.304699.0644-.5903-.133701-.856899-.139198-.1873-.3209-.303801-.545097-.349701-.229603-.052999-.562901.010201-.999901.1896l-1.054699.431702c-.6007.245199-1.126102.328199-1.576403.2491-.455599-.086401-.822599-.316801-1.101-.691401-.353399-.4755-.455399-.981199-.305899-1.517401.144199-.543299.518799-1.039799,1.123899-1.489599.5979-.4445,1.191299-.6618,1.780102-.6521.588699.009699,1.0984.251499,1.528999.7255l-.832001.6185c-.27-.2579-.5755-.383101-.916599-.375601-.341103.0075-.6954.1478-1.062801.4209-.353001.2624-.5758.5343-.6686.8158-.098099.2742-.0562.5338.1259.7787.1392.1873.3281.2985.566801.3337.2458.029701.569199-.0317.9701-.184401l1.041199-.404799c.613201-.243301,1.1539-.3209,1.622101-.2327.468098.0882.849499.3304,1.143997.726601.358704.482599.4561.997398.292202,1.544199-.169201.5396-.577999,1.0504-1.226398,1.532301Z"/>
  <path class="st2" d="M44.631199,18.548517c-.613899.2763-1.218597.376101-1.814098.299601-.595402-.076601-1.134701-.301401-1.617599-.6747-.478401-.385101-.857601-.8887-1.137501-1.510801-.2836-.630299-.403099-1.2458-.358501-1.8466.044601-.6008.233501-1.1435.566601-1.6281.341301-.488199.818901-.8705,1.4328-1.1467.622101-.2799,1.224998-.3839,1.808601-.3119.591797.0684,1.123199.286901,1.594299.655701.479198.3651.8606.8627,1.144299,1.493.2799.6221.401199,1.2417.364002,1.8589-.0327.605299-.217903,1.156099-.555603,1.652599-.329399.492701-.805199.879101-1.427299,1.159ZM44.255501,17.713617c.425598-.1915.747898-.4596.9669-.804199.215298-.3528.326-.752001.3321-1.197701.006199-.445701-.0994-.910001-.316799-1.3929-.3241-.7203-.7761-1.2108-1.356003-1.4716-.5718-.2643-1.172798-.254701-1.803097.028899-.622002.279901-1.027802.7234-1.2173,1.3303-.189503.6069-.1222,1.2706.2019,1.9909.2174.482901.494797.8699.832497,1.1609.337601.290899.709801.4729,1.116703.5457.411297.060999.8256-.002399,1.243099-.1903Z"/>
  <path class="st2" d="M49.711498,16.433117l-2.295898-7.49206c-.184101-.60074-.1558-1.12105.084999-1.56095.249302-.44252.730103-.77292,1.442402-.9912.1716-.0526.307198-.08478.406898-.09654.1082-.0144.2006-.01924.277203-.01454l.248497.811c-.0653.00124-.156399.01038-.273197.0274-.108303.0144-.2225.04001-.342602.07682-.394798.12098-.6563.30909-.784599.56433-.119801.25261-.124401.55914-.014.91958l2.280201,7.44056-1.029903.315599ZM46.616199,11.157517l-.2682-.875401,3.977699-1.21896.268303.87536-3.977802,1.219Z"/>
  <path class="st2" d="M57.3871,14.519017l-.828999-9.65843,1.099998-.09442.828999,9.65845-1.099998.0944ZM57.9505,14.470617l-.082901-.9658,5.902401-.506599.082901.965799-5.902401.5066ZM57.5602,9.923147l-.082901-.96585,5.419403-.46516.082897.96584-5.419399.46517ZM57.204399,5.778067l-.082901-.96584,5.795002-.49741.082901.96585-5.795002.4974Z"/>
  <path class="st2" d="M71.366898,14.422617l-2.014496-3.3616-2.4189-3.88023,1.2481.09954,1.859299,3.10619,2.574196,4.135699-1.248199-.0996ZM69.473,10.395217l2.386002-2.82164,1.207901.09632-3.088005,3.49502-.505898-.7697ZM69.870399,11.169817l-2.570099,2.9286-1.221397-.0974,3.329094-3.638.462402.8068Z"/>
  <path class="st2" d="M76.664299,15.638317c-.627296-.1551-1.116798-.4379-1.468399-.8485-.351601-.4105-.536797-.914-.555801-1.5104l.215599.0255-1.0728,4.3394-1.045601-.258501,2.310303-9.345289.980301.24234-.384499,1.555369-.134102-.074759c.292603-.47317.705399-.79644,1.238297-.96982.535103-.18209,1.107605-.197741,1.717506-.04695.592598.14649,1.071098.41735,1.435699.812611.373299.397409.618401.8833.735298,1.4577.116898.5745.090202,1.2058-.080002,1.894199-.172302.697101-.449402,1.275801-.831398,1.7362-.381905.4603-.834999.7782-1.3592.9538-.5242.1755-1.091202.1879-1.701202.0371ZM76.733704,14.684617c.662193.1637,1.236694.0653,1.723396-.2952.4888-.3692.831299-.950199,1.027298-1.743099.193901-.7843.158401-1.444901-.1064-1.9819-.262695-.5457-.725098-.90046-1.387398-1.06418-.662201-.16371-1.242104-.062059-1.7397.30498-.495399.3583-.841103.9339-1.037102,1.7269-.191795.7755-.151901,1.4372.119499,1.9851.271301.5479.738106.9037,1.400406,1.0674Z"/>
  <path class="st2" d="M84.022499,18.145616c-.600998-.260899-1.071297-.631399-1.410896-1.1115-.336006-.4883-.528503-1.036699-.577499-1.6451-.049004-.6084.065796-1.2337.344597-1.8759.278801-.6422.651199-1.1508,1.117401-1.5258.477898-.3796,1.010498-.6034,1.597702-.6714.587296-.068,1.1856.0302,1.7948.294701.584595.253799,1.035599.601199,1.352898,1.042299.3256.4447.503601.9476.533997,1.5087.038605.5648-.077896,1.16-.349495,1.7858-.035805.082299-.073799.1587-.114204.2293-.032196.074099-.076195.1528-.131996.2362l-5.199501-2.257001.3592-.8275,4.594398,1.9944-.519501.3175c.328804-.7574.412003-1.4112.249603-1.9612-.150703-.5546-.530602-.9642-1.1399-1.2287-.625801-.271601-1.226898-.2732-1.803299-.004801-.564606.2637-1.005905.762-1.324005,1.494801-.325195.7492-.396797,1.4325-.2146,2.0497.194.612599.612099,1.058301,1.254303,1.3371.403397.1751.794998.242399,1.174698.2017.383301-.048901.7164-.2076.999298-.4762l.938606.4074c-.456001.487-1.000206.7939-1.6325.920599-.620506.122002-1.2519.043701-1.894104-.2351Z"/>
  <path class="st2" d="M88.712196,20.293716l3.538406-5.8846.865395.520301-.902,1.5001.057701.034599-2.636398,4.384701-.923103-.555101ZM91.480797,17.779516l.689507-1.4863c.439095-.4168.9142-.6495,1.425293-.698299.511101-.0488.997505.065599,1.459007.3431.192299.1157.313797.2097.364594.282101l-.534294.888399c-.029205-.0385-.0784-.078499-.147606-.120199-.064598-.049301-.146896-.104-.246895-.164101-.584702-.351599-1.137199-.4429-1.6577-.274099-.508102.1658-.958801.5756-1.351906,1.229399Z"/>
  <path class="st2" d="M93.046799,23.057317l4.058403-5.5389.868797.6366-4.058296,5.538898-.868904-.636599ZM97.963097,16.210817l.748001-1.0209.999199.7321-.747993,1.0209-.999207-.7321Z"/>
  <path class="st2" d="M97.800697,27.084716c-.479996-.445999-.800301-.9519-.9608-1.517599-.154396-.572201-.153595-1.1534.002602-1.7435.156097-.59.472504-1.1415.948997-1.6544.476501-.512901.996902-.8687,1.561203-1.067202.577003-.199099,1.153297-.233,1.730301-.101799.575996.1313,1.108002.422899,1.594002.875.466995.4338.777.911499.93,1.433001.158997.527599.158997,1.0611.000999,1.600399-.151001.545401-.459,1.068001-.923004,1.567801-.060997.0658-.123001.1252-.183998.1782-.055.0592-.123001.1189-.203003.178999l-4.153-3.858099.614006-.6609,3.668999,3.4091-.595001.126701c.561996-.605001.858002-1.1938.888-1.7665.042-.5732-.18-1.0858-.667-1.537901-.499001-.464399-1.066002-.6658-1.698997-.604399-.619804.0609-1.201805.3839-1.745506.9692-.556.598398-.8507,1.218899-.8843,1.861599-.020798.6423.225204,1.2017.738205,1.6782.322197.2994.669098.493,1.040695.581001.377701.0814.744904.0425,1.100906-.116701l.75.696501c-.593002.307499-1.208.415899-1.846207.324999-.625793-.091299-1.195099-.3752-1.708099-.8517Z"/>
  <path class="st2" d="M101.602997,30.679817l5.404007-4.2369.622993.7946-1.271996.997002.042.052898-4.132004,3.24-.665001-.847599ZM104.636002,34.547018l3.538002-2.7747c.409996-.321301.636993-.6646.681-1.0301.043999-.3654-.091003-.7495-.407005-1.152102-.277-.3531-.600998-.606499-.972-.760199-.365997-.146502-.748001-.189501-1.144997-.128901-.391998.067699-.772003.245501-1.139.533501l1.173996-1.143002c.547005-.132,1.083-.1022,1.610001.0893.532005.1987.987.5382,1.362999,1.018501.443001.5651.635002,1.144499.576004,1.738298-.045998.595402-.331001,1.0979-.854004,1.507801l-3.760994,2.9492-.664001-.847599Z"/>
  <path class="st2" d="M107.348,39.171716c-.309998-.5462-.455002-1.109299-.432999-1.689301.032997-.576698.212997-1.122898.540001-1.638699.337997-.512402.807999-.9394,1.408997-1.2808.600998-.341499,1.200005-.522102,1.798004-.541901.601997-.011898,1.155998.1175,1.660995.3881.509003.2784.917.686901,1.223,1.2253.251999.444801.393005.891602.421005,1.340401.031998.456501-.048004.888802-.239006,1.297001-.178993.411499-.461998.7682-.847,1.070099l-.492996-.866199c.337997-.295399.547997-.652302.630997-1.070702.082001-.4184-.002998-.849998-.255997-1.2948-.217003-.382401-.499001-.660797-.846001-.8354-.347-.1745-.737-.242199-1.168999-.203098-.431999.038998-.877998.1894-1.339005.451-.459999.2617-.821999.570297-1.084.925999-.261993.355598-.410995.729301-.446999,1.121101-.030998.399597.062004.7906.279999,1.173.243004.429199.565002.721699.963005.877399.405998.151199.821999.1572,1.249001.017998l.491997.866199c-.453003.164803-.908997.217201-1.365997.157101-.445999-.056801-.854004-.211899-1.224998-.4655-.371002-.253597-.679001-.594997-.923004-1.0243Z"/>
  <path class="st2" d="M110.108002,44.994718c-.236-.610901-.303001-1.205902-.201004-1.784901.112-.582199.366005-1.1045.764999-1.567001.398003-.462399.924004-.820198,1.576004-1.0732.653-.253098,1.277-.3456,1.871002-.277599.605995.0732,1.139999.294701,1.600998.6647s.810997.864601,1.051003,1.484001c.230995.5942.300995,1.1591.209999,1.694901-.088005.544098-.32,1.0242-.698006,1.440201-.375.424397-.879997.759899-1.515999,1.006397-.084.032501-.165001.059101-.242996.079903-.076004.029198-.163002.053299-.261002.0723l-2.049004-5.285103.841003-.326099,1.809998,4.670002-.590996-.1464c.769997-.298401,1.293999-.6987,1.570999-1.200802.289001-.496998.312996-1.055099.072998-1.6744-.247002-.636097-.667999-1.0648-1.264-1.286198-.584-.216301-1.249001-.180099-1.993996.1087-.762001.2952-1.298004.724499-1.609001,1.287899-.299004.5686-.323006,1.179199-.07,1.832001.158997.410099.386993.735901.682999.977398.304001.2383.651001.363701,1.041.376202l.369995.954102c-.667.017899-1.267998-.153603-1.802994-.5144-.523003-.355602-.911003-.859802-1.164001-1.5126Z"/>
  <g class="st1">
    <path class="st2" d="M109.349998,85.148416l4.088005,1.598,6.278-1.491898-.490005,1.253998-5.5,1.275803.186005-.476501,3.176994,4.667999-.450996,1.153603-3.601997-5.354706-4.088005-1.598099.402-1.028198Z"/>
    <path class="st2" d="M105.690002,92.239519c.336998-.561501.765999-.979103,1.286995-1.252602.528-.268898,1.097-.387604,1.707001-.3563.609001.031403,1.214005.227501,1.814003.588303.599998.360695,1.055.796799,1.365997,1.308197.313004.523697.465004,1.081001.455002,1.672104-.009003.591095-.184998,1.171295-.528,1.740494-.328003.546204-.732002.947601-1.210999,1.204201-.483002.264305-1.005005.374603-1.566002.331001-.565002-.035896-1.139-.229698-1.723999-.5812-.077003-.046303-.148003-.094002-.211998-.143402-.069-.041595-.142006-.095497-.217003-.161797l2.920998-4.857704.773003.464806-2.581001,4.292397-.247002-.556702c.708.425499,1.345001.593903,1.912003.505104.569-.076401,1.025002-.3992,1.368004-.968399.350998-.584702.431999-1.180305.240997-1.787003-.187004-.594398-.623001-1.097397-1.306999-1.509003-.700005-.420898-1.368004-.581696-2.004005-.482201-.632996.111702-1.129997.467606-1.489998,1.067604-.226997.376999-.345001.756302-.354996,1.138-.002007.386398.112.737495.340996,1.053299l-.527.8769c-.422997-.516098-.655998-1.095901-.697998-1.739296-.040001-.631203.121002-1.246803.482002-1.846802Z"/>
    <path class="st2" d="M100.336998,99.786317c.139999.069496.292.160202.456001.271698.157997.119003.354004.276001.590004.470001l.042999-.052002,2.531998,2.093002c.402.331001.773003.481003,1.113998.447998.343002-.019997.681999-.234001,1.020004-.641998.330994-.401001.514-.792.547997-1.170998.035004-.367004-.084999-.687004-.359001-.959999l.660004-.799606c.484001.457603.708,1.003601.671997,1.638603-.034996.634003-.315002,1.269997-.840996,1.905998-.543007.658005-1.102005,1.016998-1.676003,1.078003-.574997.060997-1.173004-.166-1.795998-.68l-2.542999-2.100998c-.152-.125999-.320007-.247002-.503006-.363007-.176994-.111-.369095-.223-.577599-.336998l.660599-.799698ZM101.733002,97.88402c.451996-.5466.944-.874001,1.474998-.982002.532997-.095299,1.030998.0485,1.495003.431503.463997.383095.691994.839493.684998,1.369293-.007004.5299-.209999,1.142105-.609001,1.837204l-1.214996,2.103996-.685005-.564995,1.153-1.945999c.258003-.4394.397003-.819305.417999-1.140007.020004-.320694-.107994-.595398-.384995-.824097-.269005-.223-.548004-.301697-.834999-.236099-.293007.072502-.588005.288696-.885002.648499-.383003.463699-.591003.926598-.623001,1.388702-.031998.474998.122002.851997.460999,1.131996l-.848-.473999c-.262001-.402-.354996-.845596-.279999-1.330902.069-.478394.294998-.949394.678001-1.413094Z"/>
    <path class="st2" d="M98.4114,101.792017l4.7136,4.993004-.735001.693993-1.200996-1.272995-.049004.045998-3.511803-3.721001.783203-.738998ZM100.085999,105.136018l1.246002,1.063995c.282997.536003.378998,1.056.288002,1.561005-.090004.505997-.332001.943001-.723,1.312996-.163002.153999-.287003.245003-.370003.275002l-.7118-.753998c.044998-.017998.096802-.054001.155602-.110001.065201-.049004.140198-.112999.224197-.193001.497002-.469002.733002-.975998.710999-1.523003-.022995-.533997-.295998-1.077995-.82-1.632996Z"/>
    <path class="st2" d="M92.650497,106.526018c.677101-.503998,1.332504-.75,1.966202-.739998.639.016998,1.2015.292,1.6875.825996l-.832001.618004c-.312798-.316002-.668495-.471001-1.067101-.465004-.398499.004997-.813896.168999-1.246101.489998-.381798.284004-.627197.578003-.736298.883003-.109001.305-.0644.589996.133698.857002.139206.186996.3209.304001.545105.348999.229599.053001.562897-.010002.999901-.189003l1.054695-.431999c.600601-.245003,1.126106-.328003,1.576302-.249001.455704.085999.822701.317001,1.101105.691002.353394.475998.455399.982002.305893,1.517998-.144196.542999-.518799,1.040001-1.123894,1.488998-.5979.445-1.191299.662003-1.780106.653-.588699-.009995-1.098396-.251999-1.528999-.725998l.832001-.617996c.270004.256996.5755.382996.916603.375.341095-.007004.695396-.148003,1.062798-.421005.352997-.262001.575798-.533997.668602-.815994.098099-.274002.056099-.533005-.1259-.778-.139198-.188004-.328102-.299004-.566803-.334-.245796-.030006-.569199.031998-.9702.183998l-1.0411.404999c-.613197.243996-1.1539.320999-1.622101.233002-.468102-.088005-.849495-.330002-1.143997-.727005-.358704-.481995-.4562-.996994-.292198-1.543999.169197-.539001.577995-1.049995,1.226395-1.531998Z"/>
    <path class="st2" d="M84.069,111.542017c.613899-.276001,1.218597-.375999,1.814102-.300003.595398.077003,1.134598.302002,1.617599.675003.478401.385002.857597.889,1.137497,1.511002.2836.629997.403099,1.246002.358498,1.846001-.044594.600998-.233498,1.143997-.566597,1.627998-.341301.488998-.818901.871002-1.4328,1.147003-.622101.279999-1.224998.383995-1.808601.311996-.591797-.068001-1.123199-.287003-1.594299-.655998-.479202-.365005-.860596-.862-1.144295-1.493004-.279907-.622002-.401207-1.240997-.364006-1.859001.0327-.604996.217903-1.155998.555603-1.652.329399-.492996.805199-.878998,1.427299-1.158997ZM84.444702,112.377016c-.425606.191002-.747902.459-.966904.804001-.215302.352997-.325996.751999-.3321,1.197998-.006195.445.099403.910004.316803,1.393005.324097.719994.7761,1.209999,1.355995,1.470993.5718.264008,1.172806.255005,1.803101-.028999.622002-.279999,1.027802-.723,1.2173-1.329994.189499-.607002.1222-1.271004-.201897-1.991005-.2174-.482994-.494804-.869995-.832504-1.160995-.337593-.291-.7099-.473-1.116699-.546005-.411301-.060997-.825699.003006-1.243095.191002Z"/>
    <path class="st2" d="M78.988701,113.657015l2.295898,7.492004c.184097.600998.155701,1.120995-.084999,1.560997-.249298.443001-.730103.773003-1.442398.990997-.1716.053001-.307205.085007-.406898.097-.108307.014-.200607.019005-.277206.015007l-.248497-.811005c.0653-.001999.156403-.011002.273201-.028.108299-.014.222496-.040001.342598-.076996.394798-.121002.656303-.309006.784599-.564003.119804-.252998.124405-.558998.014-.919998l-2.280197-7.440002,1.0299-.316002ZM82.0839,118.933015l.268303.875-3.977707,1.219002-.268295-.875,3.977699-1.219002Z"/>
    <path class="st2" d="M71.313103,115.571016l.828995,9.659004-1.099998.093994-.829002-9.657997,1.100006-.095001ZM70.749702,115.62002l.082901.965996-5.902405.506004-.082901-.966003,5.902405-.505997ZM71.139999,120.167017l.082901.966003-5.419403.464996-.082901-.965996,5.419403-.465004ZM71.495796,124.312013l.082901.966003-5.794998.498001-.082901-.966003,5.794998-.498001Z"/>
    <path class="st2" d="M57.333302,115.668016l2.0145,3.361,2.4189,3.881004-1.2481-.100006-1.859299-3.105995-2.574203-4.136002,1.248203.099998ZM59.2272,119.695017l-2.385998,2.821999-1.207901-.097,3.087997-3.494995.505901.769997ZM58.8298,118.921014l2.570099-2.929001,1.221401.097-3.329102,3.638-.462399-.806Z"/>
    <path class="st2" d="M52.0359,114.45202c.6273.154999,1.116798.437996,1.468399.848999.351601.409996.5368.913994.555801,1.509995l-.215599-.025993,1.0728-4.339005,1.045597.259003-2.310299,9.345001-.980301-.243004.384502-1.555.134098.075005c-.292698.473-.705399.795998-1.2383.969994-.535099.181999-1.107597.197006-1.717499.047005-.592598-.147003-1.071098-.417999-1.435699-.813004-.373299-.396996-.618401-.882996-.735302-1.458-.116898-.573997-.090199-1.206001.079903-1.893997.172398-.696999.449497-1.276001.831497-1.736.381901-.459999.835003-.778,1.359203-.954002.524197-.174995,1.091198-.187996,1.701199-.036995ZM51.966499,115.406015c-.662201-.164001-1.236698-.066002-1.7234.294998-.4888.369003-.831299.950005-1.027298,1.743004-.193901.783997-.158401,1.445.1064,1.982002.262699.545998.725098.899994,1.387398,1.063995.662201.164001,1.2421.062004,1.7397-.305.495399-.357994.841103-.933998,1.037102-1.726997.1917-.775002.151901-1.436996-.119499-1.985001-.271301-.547997-.738102-.903999-1.400402-1.067001Z"/>
    <path class="st2" d="M44.6777,111.945017c.601002.261002,1.071301.630997,1.4109,1.111.335999.488998.5285,1.037003.577499,1.644997.049.609001-.0658,1.234001-.344601,1.876007-.278797.641998-.651199,1.150993-1.117397,1.525993-.477901.380005-1.010502.603004-1.597702.671005-.587299.068001-1.1856-.029999-1.7948-.293999-.584599-.254005-1.035599-.601006-1.352901-1.043007-.3256-.444-.503597-.946999-.533997-1.507996-.038601-.565002.0779-1.160004.349499-1.786003.035801-.082001.073799-.158997.114201-.228996.0322-.074005.076199-.153.131901-.237l5.199596,2.256996-.3592.828003-4.594398-1.994003.519501-.318001c-.3288.757004-.412003,1.411003-.249599,1.961006.1507.555.530598.963997,1.1399,1.228996.625797.272003,1.226799.273003,1.803299.004997.564598-.264,1.005898-.761993,1.323997-1.494995.325203-.749001.396801-1.432999.214603-2.050003-.194-.612-.612103-1.057999-1.254303-1.336998-.4034-.175003-.794998-.241997-1.174698-.202003-.383301.049004-.7164.208-.999302.477005l-.938599-.408005c.456001-.487,1.000198-.793999,1.6325-.919998.620499-.122002,1.2519-.043999,1.8941.235001Z"/>
    <path class="st2" d="M39.987999,109.797014l-3.538399,5.884003-.865398-.519997.901997-1.5-.057697-.035004,2.636398-4.384003.9231.555ZM37.219398,112.311014l-.689499,1.486c-.439098.417-.9142.650002-1.425301.698006-.511101.048996-.997498-.065002-1.459-.343002-.192299-.114998-.313801-.209-.364601-.281998l.534302-.888c.029202.037994.0784.077995.147598.119995.064602.049004.1469.104004.246902.164001.584698.351997,1.137199.443001,1.6577.274002.508099-.166.958698-.575005,1.351898-1.229004Z"/>
    <path class="st2" d="M35.6534,107.033014l-4.058401,5.539001-.868799-.637001,4.0583-5.538994.8689.636993ZM30.737101,113.880014l-.748001,1.020004-.999199-.732002.747999-1.020996.999201.732994Z"/>
    <path class="st2" d="M30.8995,103.006014c.48.446007.800301.951004.9608,1.517006.154402.571999.153601,1.153999-.0026,1.743996-.156101.590004-.4725,1.140999-.948999,1.653999-.476501.513-.996901.869003-1.561201,1.067001-.577.198997-1.153799.233002-1.7302.101997-.576401-.130997-1.107901-.422997-1.5945-.875-.4669-.433998-.7766-.910995-.929201-1.432999-.1591-.528-.159698-1.060997-.001699-1.599998.1514-.545998.459301-1.068001.923599-1.568001.0611-.066002.122501-.125.184-.178001.055-.058998.122702-.118996.203001-.178993l4.1527,3.857994-.614.661003-3.6693-3.409004.595499-.126999c-.562099.605003-.858,1.194-.887699,1.765999-.0425.574005.1796,1.086006.666201,1.538002.4998.465004,1.066099.666,1.6989.605003.620199-.061005,1.2022-.384003,1.745899-.969002.556-.598999.8507-1.219002.884199-1.862.020901-.641998-.2251-1.202003-.7381-1.678001-.322199-.300003-.6691-.492996-1.040699-.581001-.377701-.082001-.7446-.042999-1.1008.116005l-.749601-.696007c.592001-.307999,1.2073-.415993,1.845701-.324997.625799.091003,1.195099.375,1.708099.851997Z"/>
    <path class="st2" d="M27.096901,99.410516l-5.403502,4.236504-.6231-.794006,1.2714-.996994-.0415-.053001,4.132101-3.240105.6646.847603ZM24.0646,95.543314l-3.538799,2.774803c-.4097.321198-.6366.664597-.680801,1.029999-.0443.365501.091501.749901.4072,1.151901.276901.352997.601101.607002.972502.760002.365799.146996.747398.189995,1.144699.128998.3918-.067001.771299-.245003,1.138599-.532997l-1.174,1.142998c-.5466.131996-1.0832.101997-1.6098-.090004-.5322-.197998-.986599-.537994-1.363199-1.017998-.4431-.565002-.635099-1.144501-.576-1.738297.0464-.595299.330999-1.0979.853701-1.507805l3.7612-2.949196.6647.847595Z"/>
    <path class="st2" d="M21.3519,90.918619c.310499.546295.455,1.109398.433599,1.6894-.033699.576599-.213699,1.122795-.539999,1.638596-.3386.512405-.8083.9394-1.409201,1.280899-.600901.341507-1.2003.522102-1.798201.541801-.602299.011902-1.155899-.117401-1.6607-.3881-.509199-.278397-.9168-.686798-1.222799-1.225296-.2528-.444801-.3931-.891602-.421-1.340302-.0323-.456604.0472-.888901.238501-1.296997.1791-.411507.461699-.768204.8476-1.070107l.492199.866203c-.337999.295303-.5481.652199-.630399,1.070602-.0823.418396.002999.849998.255799,1.2948.2173.382401.499401.660896.8463.835396.347.1745.7365.242203,1.168501.203201.432098-.039101.8783-.1894,1.338799-.451103.460402-.261597.8218-.570297,1.084301-.925896.262499-.355698.4114-.729401.446899-1.121201.031-.399597-.062099-.790604-.2794-1.172997-.243999-.429207-.565001-.721603-.9632-.877304-.406-.151299-.822401-.157303-1.2491-.017998l-.4923-.866302c.453499-.164803.909-.217102,1.3664-.156998.4452.056702.8535.211899,1.224699.4655.371302.253601.678801.595001.922701,1.0242Z"/>
    <path class="st2" d="M18.591801,85.095613c.236898.611.303799,1.205902.201,1.784904-.111301.582199-.366001,1.1045-.7644,1.567001-.3983.462502-.923901.820198-1.5767,1.073296-.6527.253006-1.2763.345505-1.8706.277504-.606001-.073105-1.139501-.294701-1.6006-.664703-.461101-.369995-.8117-.864601-1.0518-1.483902-.230301-.5942-.3001-1.159195-.2094-1.695.0875-.544098.3202-1.0242.698-1.440193.374599-.4244.8799-.759804,1.5159-1.006401.0837-.032402.1649-.059105.243401-.079903.075399-.029198.162299-.053299.260799-.072197l2.0488,5.284996-.841101.326103-1.8103-4.670006.591001.1464c-.77.2985-1.2935.6987-1.5705,1.200806-.2887.496994-.313,1.055199-.073,1.6745.2466.636002.6679,1.064697,1.2639,1.286095.5845.216301,1.2491.180107,1.993999-.108597.761501-.295303,1.297901-.724602,1.6089-1.288002.299501-.568497.322701-1.179199.069601-1.832001-.158901-.410095-.386301-.735893-.6821-.977394-.304199-.238304-.651199-.363701-1.041101-.376205l-.3698-.954094c.666901-.017807,1.267599.153595,1.8022.514397.5229.355598.9109.859802,1.1639,1.512596Z"/>
  </g>
  <g>
    <path class="st2" d="M34.849854,77.192583v-2.857422c0-1.65625.272461-3.03418.816895-4.133789.544434-1.100586,1.332031-2.007812,2.364258-2.72168,1.031738-.714844,2.296387-1.29834,3.793457-1.752441l2.279785-.714355c.838867-.272461,1.541992-.606934,2.109375-1.003906.566406-.396484,1.003418-.878906,1.30957-1.445801s.459473-1.213379.459473-1.939453v-.135742c0-1.134277-.38623-2.035645-1.156738-2.705078-.771484-.668457-1.826172-1.003418-3.164062-1.003418-1.315918,0-2.376465.356934-3.181152,1.071777-.805176.714355-1.208008,1.740723-1.208008,3.078613v.612793h-4.354492v-.544434c0-1.723633.385254-3.186523,1.156738-4.38916.770508-1.20166,1.820312-2.120605,3.146973-2.755859,1.32666-.634277,2.806641-.952148,4.439941-.952148,1.632812,0,3.106934.312012,4.422852.935547,1.314941.624023,2.352539,1.496582,3.112793,2.619629.759766,1.122559,1.139648,2.444336,1.139648,3.963379v.340332c0,1.52002-.312012,2.806641-.935547,3.861328-.624023,1.054688-1.46875,1.916992-2.534668,2.585938-1.066406.668945-2.279297,1.219727-3.640137,1.650391l-2.177246.679688c-.975586.294922-1.735352.618164-2.279785.969727-.544434.352539-.924316.737305-1.139648,1.157227-.21582.419922-.323242.923828-.323242,1.513672v.135742h12.826172v3.878906h-17.283203Z"/>
    <path class="st2" d="M65.061279,77.669145c-2.8125,0-5.069336-.777344-6.77002-2.331055-1.701172-1.552734-2.551758-3.90625-2.551758-7.05957v-5.987793c0-3.062012.850586-5.39209,2.551758-6.991211,1.700684-1.599121,3.95752-2.398438,6.77002-2.398438,2.835938,0,5.097656.799316,6.787109,2.398438s2.535156,3.929199,2.535156,6.991211v5.987793c0,3.15332-.845703,5.506836-2.535156,7.05957-1.689453,1.553711-3.951172,2.331055-6.787109,2.331055ZM65.061279,73.790239c1.701172,0,2.955078-.464844,3.759766-1.394531s1.207031-2.256836,1.207031-3.980469v-6.328613c0-1.746094-.447266-3.066895-1.34375-3.963379-.896484-.895508-2.103516-1.34375-3.623047-1.34375-1.564453,0-2.78418.464844-3.657227,1.394531-.873535.930664-1.30957,2.234375-1.30957,3.912598v6.328613c0,1.791992.413574,3.135742,1.241699,4.03125.827637.896484,2.068848,1.34375,3.725098,1.34375Z"/>
    <path class="st2" d="M85.031982,72.395708v-5.171875h-5.102539v-3.878418h5.102539v-5.171387h4.014648v5.171387h5.103516v3.878418h-5.103516v5.171875h-4.014648Z"/>
  </g>
</svg>