<svg width="62" height="62" viewBox="0 0 62 62" fill="none" xmlns="http://www.w3.org/2000/svg">
<rect x="6.10352e-05" width="62" height="62" rx="9" fill="#64009B"/>
<path d="M40.9994 44.3333C41.5298 44.3333 42.0386 44.1226 42.4136 43.7475C42.7887 43.3725 42.9994 42.8638 42.9994 42.3333V37.6667C42.9994 37.1362 42.7887 36.6275 42.4136 36.2525C42.0386 35.8774 41.5298 35.6667 40.9994 35.6667C39.4394 35.6667 37.9061 35.4267 36.4394 34.9333C36.0888 34.8227 35.7145 34.8101 35.3572 34.8971C34.9999 34.9841 34.6733 35.1672 34.4127 35.4267L32.4927 37.3467C29.1757 35.5366 26.4495 32.8103 24.6394 29.4933L26.5461 27.5867C27.0927 27.0667 27.2927 26.2933 27.0527 25.5467C26.5727 24.0933 26.3327 22.56 26.3327 21C26.3327 20.4696 26.122 19.9609 25.747 19.5858C25.3719 19.2107 24.8632 19 24.3327 19H19.6661C19.1356 19 18.6269 19.2107 18.2519 19.5858C17.8768 19.9609 17.6661 20.4696 17.6661 21C17.6661 33.8667 28.1327 44.3333 40.9994 44.3333ZM19.6661 20.3333H24.3327C24.5096 20.3333 24.6791 20.4036 24.8041 20.5286C24.9292 20.6536 24.9994 20.8232 24.9994 21C24.9994 22.7067 25.2661 24.3733 25.7861 25.96C25.8527 26.1467 25.8394 26.4133 25.6261 26.6267L22.9994 29.24C25.1994 33.5467 28.4261 36.7733 32.7461 39L35.3461 36.3733C35.5327 36.1867 35.7861 36.1333 36.0261 36.2C37.6261 36.7333 39.2927 37 40.9994 37C41.1762 37 41.3458 37.0702 41.4708 37.1953C41.5958 37.3203 41.6661 37.4899 41.6661 37.6667V42.3333C41.6661 42.5101 41.5958 42.6797 41.4708 42.8047C41.3458 42.9298 41.1762 43 40.9994 43C28.8661 43 18.9994 33.1333 18.9994 21C18.9994 20.8232 19.0696 20.6536 19.1947 20.5286C19.3197 20.4036 19.4893 20.3333 19.6661 20.3333Z" fill="white"/>
</svg>
