<svg xmlns="http://www.w3.org/2000/svg" id="Layer_1" data-name="Layer 1" viewBox="0 0 344.58 383.22"><defs><style>.cls-1{fill:#235a82;}.cls-2{fill:#1c3461;}.cls-3{fill:#95397d;}.cls-4{fill:#1d7c88;}</style></defs><path class="cls-1" d="M255,360.83c-33.42-.28-64.8-10.9-93.82-29C131.69,313.5,107,289.93,86.45,262c-3.65-5-3.68-7.09.07-12.08,27.47-36.64,60.73-66.32,103.21-84.57,46.68-20.05,93.14-18.76,139,2.81,39.7,18.7,71.2,47.29,97.19,82.28,3.07,4.12,3.22,6.76.38,10.57-29.89,40.09-66.39,71.85-113.86,89.57A164.85,164.85,0,0,1,255,360.83Zm-4.71-15c22.71,0,40.77-3.2,57.27-9.36,42.05-15.72,74.71-43.72,102.35-78.31,1.4-1.75,1.1-2.9-.17-4.5-21.78-27.46-47.13-50.78-78.22-67.39-47.86-25.55-96.3-27.05-145.17-2.93C152.57,200,125.4,224.6,102.14,253.83c-1.63,2-.83,3.23.41,4.81C121.35,282.4,143.06,303,168.88,319,195.54,335.55,224.23,345.66,250.26,345.84Z" transform="translate(-83.71 -64.39)"></path><path class="cls-2" d="M258.25,64.39c4.05,2.2,5.39,5.55,5.33,10.15-.22,15.18-.07,30.37-.1,45.56,0,4.87-2.5,8.06-6.54,8.59a7.32,7.32,0,0,1-8.33-7.1c-.14-16.68-.08-33.36,0-50,0-3.57,2.55-5.43,5.19-7.16Z" transform="translate(-83.71 -64.39)"></path><path class="cls-2" d="M263.49,415.72c0,7.59,0,15.19,0,22.78,0,5.68-2.94,9.17-7.57,9.11s-7.38-3.46-7.39-8.91q0-23.34,0-46.67c0-5.39,3-8.79,7.56-8.74s7.38,3.46,7.4,8.91C263.51,400,263.49,407.88,263.49,415.72Z" transform="translate(-83.71 -64.39)"></path><path class="cls-2" d="M153.28,159.81c-.17,6.64-6.24,10.14-11.09,7.41a14.32,14.32,0,0,1-2.88-2.35c-9.87-9.84-19.82-19.61-29.48-29.65-1.71-1.77-3.23-4.86-3-7.1a8.53,8.53,0,0,1,4.7-5.84c2.08-.76,5.81-.12,7.4,1.4,10.9,10.38,21.48,21.11,32,31.85C152.3,156.85,152.82,158.93,153.28,159.81Z" transform="translate(-83.71 -64.39)"></path><path class="cls-2" d="M406.49,128.59c-1.63,2.69-2.45,4.85-3.94,6.37q-15,15.31-30.33,30.38c-3.71,3.68-8.05,3.84-11.24.63s-3-7.47.71-11.23c10.08-10.16,20.23-20.25,30.34-30.38,2.62-2.62,5.82-4,9.06-2C403.26,123.71,404.63,126.36,406.49,128.59Z" transform="translate(-83.71 -64.39)"></path><path class="cls-2" d="M113.8,399c-2.34-1.8-5.08-2.94-6-4.94s-.34-4.88,0-7.33c.12-.93,1.28-1.78,2.06-2.57,9.85-9.87,19.61-19.82,29.65-29.49,1.78-1.71,4.78-3.2,7.09-3,2.1.14,4.59,2.31,5.92,4.25,1.75,2.57.9,5.6-1.22,7.89-2.87,3.11-5.91,6.06-8.9,9.05-7.3,7.31-14.54,14.67-22,21.86C118.67,396.32,116.37,397.33,113.8,399Z" transform="translate(-83.71 -64.39)"></path><path class="cls-2" d="M365.67,350.28c2.71,1.58,4.9,2.35,6.41,3.82q15.33,15,30.4,30.32c3.85,3.87,4,8.33.65,11.52s-7.47,2.79-11.25-1q-15.24-15.12-30.37-30.35c-2.5-2.51-3.86-5.63-1.95-8.75C360.9,353.68,363.46,352.23,365.67,350.28Z" transform="translate(-83.71 -64.39)"></path><path class="cls-3" d="M323.67,256a68,68,0,0,1-62.48,67.18c-34.19,3-66.15-21.86-71.51-56.12-1.1-7-.52-14.4-.14-21.58.28-5.41,4-8.39,8.51-7.79s7,4,6.26,9.32a55.8,55.8,0,0,0,1.11,22.62c7.15,26.24,32.6,42.36,59.84,37.93,25.8-4.19,44.81-28.56,43.05-55.22-2.21-33.71-36-56.56-68.35-46.28a35.81,35.81,0,0,1-3.56,1.13c-4.14.84-7.75-1.21-8.87-4.95a7.21,7.21,0,0,1,4.43-9.14,63,63,0,0,1,29.71-4.26c30.85,3,54.55,24.56,60.53,54.93C323,247.83,323.19,252,323.67,256Z" transform="translate(-83.71 -64.39)"></path><path class="cls-2" d="M285.94,256.14a29.93,29.93,0,1,1-29.89-30.06A30,30,0,0,1,285.94,256.14Zm-15-.1A15,15,0,1,0,256,271,15,15,0,0,0,271,256Z" transform="translate(-83.71 -64.39)"></path><path class="cls-4" d="M218.55,218.67a7.46,7.46,0,1,1-7.18-7.54A7.54,7.54,0,0,1,218.55,218.67Z" transform="translate(-83.71 -64.39)"></path></svg>