<svg width="62" height="62" viewBox="0 0 62 62" fill="none" xmlns="http://www.w3.org/2000/svg">
<rect width="62" height="62" rx="9" fill="white"/>
<g clip-path="url(#clip0_4401_9569)">
<path d="M30.7872 31.2128L31.0644 31.3094C35.6284 32.8802 41.122 31.378 45 27.5M30.7872 31.2128L30.006 30.9454C25.7472 29.4782 20.619 30.881 17 34.5M30.7872 31.2128L30.6906 30.9356C29.1198 26.3716 30.622 20.878 34.5 17M30.7872 31.2128L31.0546 31.994C32.5218 36.2514 31.119 41.381 27.5 45M28.2 35.2L30.7802 37.8908M23.671 30.7802L25.4 32.512M30.7816 23.671L33.8 26.8M36.6 29.6L37.8908 30.7802M19.8 32.4L24.7 37.3M41.8892 29.446L36.9892 24.546M27.227 39.6674L29.4488 41.8892M34.6218 22.0218L32.4 19.8" stroke="#64009B" stroke-width="2.2" stroke-linecap="round"/>
</g>
<defs>
<clipPath id="clip0_4401_9569">
<rect width="32" height="32" fill="white" transform="translate(15 15)"/>
</clipPath>
</defs>
</svg>
